<?xml version="1.0" encoding="UTF-8"?>
<svg version="1.1" xmlns="http://www.w3.org/2000/svg" width="738" height="338">
<path d="M0 0 C0.97324219 0.23332031 1.94648438 0.46664062 2.94921875 0.70703125 C11.02691302 2.97209533 17.12118747 7.00546282 23 13 C23 13.66 23 14.32 23 15 C23.66 15 24.32 15 25 15 C25 15.66 25 16.32 25 17 C25.61617187 17.23589844 26.23234375 17.47179687 26.8671875 17.71484375 C29.55716694 19.3357288 30.01735216 20.66306889 31.125 23.5625 C32.25321898 26.99197579 32.25321898 26.99197579 35 29 C35.33 27.68 35.66 26.36 36 25 C36.66 25 37.32 25 38 25 C38.37125 24.13375 38.37125 24.13375 38.75 23.25 C40.18299988 20.67060021 41.78424676 18.93878408 44 17 C44.66 17 45.32 17 46 17 C46 16.34 46 15.68 46 15 C49.46153846 12 49.46153846 12 52 12 C52 11.34 52 10.68 52 10 C52.61488281 9.66226563 53.22976563 9.32453125 53.86328125 8.9765625 C54.67152344 8.53054687 55.47976563 8.08453125 56.3125 7.625 C57.11300781 7.18414062 57.91351563 6.74328125 58.73828125 6.2890625 C60.53527943 5.26486665 62.27900708 4.14732862 64 3 C66.26953125 2.4375 66.26953125 2.4375 68.8125 2 C71.68753749 1.47311723 74.23683577 0.91612067 77 -0.0625 C89.7846142 -4.05769194 104.3611485 -2.64880848 117 1 C118.09054687 1.31324219 119.18109375 1.62648438 120.3046875 1.94921875 C130.11834418 4.98449398 130.11834418 4.98449398 134 9 C134.33 9.66 134.66 10.32 135 11 C135.99 11.33 136.98 11.66 138 12 C139.71108689 13.62102968 141.37253306 15.29503463 143 17 C143.86625 17.825 144.7325 18.65 145.625 19.5 C149.28172928 23.34918872 151 25.61532988 151 31 C151.99 31.33 152.98 31.66 154 32 C154.48109963 34.52047792 154.95992603 37.0413537 155.4375 39.5625 C155.57220703 40.26697266 155.70691406 40.97144531 155.84570312 41.69726562 C156.49123485 45.11386037 157.08485178 48.51662183 157.53515625 51.96484375 C157.67381516 54.87111833 157.67381516 54.87111833 159 56 C159.09771507 58.47891971 159.12995957 60.92994777 159.12025452 63.40931702 C159.12153615 64.58666173 159.12153615 64.58666173 159.12284368 65.78779119 C159.12450087 68.43805859 159.11897324 71.08826375 159.11352539 73.73852539 C159.11324354 75.63027444 159.1134012 77.5220236 159.1139679 79.41377258 C159.11425597 84.5664511 159.10835765 89.71910655 159.10139394 94.87177968 C159.09516204 100.25032896 159.09455673 105.6288787 159.09336853 111.00743103 C159.09025473 121.20011824 159.08204069 131.39279479 159.07201904 141.58547729 C159.06085941 153.18624568 159.05534783 164.78701457 159.05032361 176.38778698 C159.03985811 200.25853194 159.02151203 224.12926227 159 248 C141.84 248 124.68 248 107 248 C106.97494385 242.54428467 106.9498877 237.08856934 106.92407227 231.4675293 C106.84058226 213.43845556 106.75194623 195.40940983 106.66066074 177.38037395 C106.60544208 166.44980089 106.55197912 155.51922457 106.50268555 144.58862305 C106.45970419 135.05871963 106.41339173 125.52883914 106.36312145 115.99897128 C106.3366325 110.95555121 106.31178298 105.91213535 106.29092598 100.86868858 C106.27121667 96.11551406 106.24703208 91.36238271 106.21950912 86.60924721 C106.21021382 84.87070126 106.20251222 83.13214589 106.19658089 81.39358521 C106.16550997 72.55383058 106.04773895 63.7917214 105 55 C104.01 54.67 103.02 54.34 102 54 C102 52.68 102 51.36 102 50 C101.443125 49.938125 100.88625 49.87625 100.3125 49.8125 C98 49 98 49 96 46.625 C91.02288896 42.27002784 84.85733203 41.0897054 78.3125 40.9375 C73.26711525 41.31590386 68.7254866 42.57750487 63.984375 44.30078125 C61.68860528 45.10972373 59.40138476 45.61267988 57 46 C56.67 47.32 56.34 48.64 56 50 C55.34 50 54.68 50 54 50 C53.67 51.32 53.34 52.64 53 54 C52.34 54 51.68 54 51 54 C50.80664062 54.60328125 50.61328125 55.2065625 50.4140625 55.828125 C50.15367187 56.62734375 49.89328125 57.4265625 49.625 58.25 C49.36976563 59.03890625 49.11453125 59.8278125 48.8515625 60.640625 C48 63 48 63 47.01584435 64.76042747 C42.5814828 74.53660464 43.69502669 87.36459804 43.68115234 97.91943359 C43.67182978 99.56680276 43.66165775 101.21416731 43.65071106 102.86152649 C43.62365908 107.28823249 43.60833619 111.71490713 43.59528303 116.14167356 C43.57954265 120.78480298 43.55278784 125.42786935 43.5272522 130.07095337 C43.48065599 138.8429983 43.4438198 147.61505534 43.41057932 156.38715994 C43.37222171 166.38249689 43.32284775 176.3777702 43.27259517 186.37305331 C43.16956059 206.91532752 43.08166225 227.45762895 43 248 C26.17 248 9.34 248 -8 248 C-7.98428955 242.56934082 -7.9685791 237.13868164 -7.95239258 231.54345703 C-7.90268722 213.60222695 -7.86939429 195.66099415 -7.84456348 177.71971321 C-7.82910756 166.84175222 -7.80804237 155.96385656 -7.77368164 145.0859375 C-7.74374031 135.60257449 -7.72441574 126.1192588 -7.71773452 116.63584983 C-7.71383029 111.61642782 -7.70468131 106.59714116 -7.68280983 101.5777626 C-7.6623699 96.84837093 -7.65618134 92.11916973 -7.66067696 87.38973808 C-7.65985511 85.65881628 -7.65393434 83.92788777 -7.64238358 82.19700432 C-7.58661299 73.40470491 -7.64037057 65.28475086 -11 57 C-11.391875 55.948125 -11.78375 54.89625 -12.1875 53.8125 C-16.11852486 47.71263384 -20.73593175 44.01321225 -27.75 42 C-37.1084554 40.09758672 -45.93155356 40.67115028 -54 46 C-59.24680289 49.29981693 -59.24680289 49.29981693 -63 54 C-63.66 54 -64.32 54 -65 54 C-65.12117188 54.72445312 -65.24234375 55.44890625 -65.3671875 56.1953125 C-65.53476563 57.16210938 -65.70234375 58.12890625 -65.875 59.125 C-66.03742188 60.07632813 -66.19984375 61.02765625 -66.3671875 62.0078125 C-67 65 -67 65 -68.0225668 67.76663399 C-69.07724399 71.25552446 -69.25847786 74.08677402 -69.27174377 77.7260437 C-69.27683061 78.37733313 -69.28191745 79.02862255 -69.28715843 79.69964802 C-69.30174899 81.86867411 -69.30235128 84.03747138 -69.30297852 86.20654297 C-69.31064536 87.76765887 -69.3191928 89.32877065 -69.32855225 90.88987732 C-69.34680387 94.24721603 -69.35886018 97.60449935 -69.36609077 100.96187973 C-69.37761555 106.28479742 -69.40309436 111.60759369 -69.43040466 116.93045044 C-69.47204308 125.36496107 -69.50445105 133.79947771 -69.53287882 142.23404229 C-69.58375848 157.29750797 -69.64649684 172.36091987 -69.71821922 187.42430031 C-69.74292878 192.70017594 -69.76245652 197.97603667 -69.77760136 203.25194812 C-69.78792162 206.55778097 -69.80206847 209.86359043 -69.81707764 213.16940498 C-69.82315144 214.68493779 -69.82765558 216.20047798 -69.83033562 217.71602058 C-69.83165552 218.42309088 -69.83297543 219.13016117 -69.83433533 219.85865784 C-69.83496223 220.46765143 -69.83558914 221.07664503 -69.83623505 221.70409298 C-69.90938162 230.55653529 -70.44448715 239.11179442 -71 248 C-87.83 248 -104.66 248 -122 248 C-122 166.49 -122 84.98 -122 1 C-105.17 1 -88.34 1 -71 1 C-70.11360611 3.65918166 -69.82010975 5.48064641 -69.68359375 8.23046875 C-69.64169922 9.03291016 -69.59980469 9.83535156 -69.55664062 10.66210938 C-69.51732422 11.49548828 -69.47800781 12.32886719 -69.4375 13.1875 C-69.39431641 14.03248047 -69.35113281 14.87746094 -69.30664062 15.74804688 C-69.20068482 17.83184433 -69.0998498 19.91590103 -69 22 C-68.62488281 21.1028125 -68.62488281 21.1028125 -68.2421875 20.1875 C-66.82524553 17.69225627 -65.46858383 16.62724311 -63.125 15 C-60.13207145 12.85371971 -57.56426788 10.65269091 -55 8 C-51.20500626 4.56315449 -47.45289634 2.82000579 -42.625 1.3125 C-41.99078125 1.10044922 -41.3565625 0.88839844 -40.703125 0.66992188 C-27.98908076 -3.44268223 -12.90166993 -3.34631019 0 0 Z " fill="#FEFE02" transform="translate(312,78)"/>
<path d="M0 0 C16.5 0 33 0 50 0 C50.75611057 3.78055286 51.12400709 6.6208872 51.12025452 10.38471985 C51.12162918 11.45177658 51.12300385 12.51883331 51.12442017 13.6182251 C51.11902725 15.35855011 51.11902725 15.35855011 51.11352539 17.1340332 C51.11367142 18.36371323 51.11381744 19.59339325 51.1139679 20.8603363 C51.1133914 24.22359352 51.1083827 27.58678904 51.10139394 30.95003533 C51.09513455 34.46808709 51.09455455 37.9861397 51.09336853 41.50419617 C51.09026284 48.1622394 51.08205972 54.82026618 51.07201904 61.47830218 C51.06083425 69.05989191 51.05534149 76.64148244 51.05032361 84.22307837 C51.03987647 99.8153951 51.02229178 115.40769543 51 131 C52.12914487 130.04360222 53.25668694 129.08531191 54.38354492 128.1262207 C55.01161545 127.59277542 55.63968597 127.05933014 56.28678894 126.50971985 C58.15604048 124.86249365 59.7470701 123.1242448 61.3125 121.1875 C64.7583206 117.12994945 68.59765566 113.67648502 72.58203125 110.15625 C77.10699783 106.12106171 81.27871816 101.88228233 85.1875 97.25 C89.14056935 92.65444533 93.62846305 88.67579215 98.1171875 84.62109375 C104.59699443 78.78357049 104.59699443 78.78357049 110 72 C112.63223267 71.63923645 112.63223267 71.63923645 116.01025391 71.65942383 C117.27141022 71.65965042 118.53256653 71.65987701 119.8319397 71.66011047 C121.21348421 71.67543156 122.59502513 71.69107956 123.9765625 71.70703125 C125.38617503 71.71262567 126.79579338 71.7168965 128.20541382 71.71989441 C131.91768464 71.73135546 135.629604 71.76083296 139.34173584 71.79400635 C143.12881719 71.8246804 146.91595526 71.83839401 150.703125 71.85351562 C158.135577 71.88570189 165.56773928 71.9369129 173 72 C173 73.65 173 75.3 173 77 C171.68 77 170.36 77 169 77 C168.896875 77.598125 168.79375 78.19625 168.6875 78.8125 C167.90175967 81.31258286 167.03081147 82.37535082 165 84 C164.34 84 163.68 84 163 84 C162.62875 84.86625 162.62875 84.86625 162.25 85.75 C160.80606301 88.34908658 159.26478013 90.07836838 157 92 C156.01 92 155.02 92 154 92 C154 92.99 154 93.98 154 95 C153.34 95 152.68 95 152 95 C151.67 95.99 151.34 96.98 151 98 C148.7502186 100.49300101 146.8523374 102.58600755 143.8125 104.0625 C141.47139069 105.27341861 140.95928874 106.60177814 140 109 C139.34 109 138.68 109 138 109 C137.6596875 109.8353125 137.6596875 109.8353125 137.3125 110.6875 C134.44041691 115.74783686 129.54661445 119.46374432 125 123 C124.34 123 123.68 123 123 123 C123 123.99 123 124.98 123 126 C121.4609375 127.61328125 121.4609375 127.61328125 119.375 129.3125 C116.64887646 131.58426962 114.07913424 133.87402314 111.625 136.4375 C109 139 109 139 107 139 C107.35290092 145.70511755 108.8901011 148.73089884 113 154 C113 154.66 113 155.32 113 156 C113.66 156 114.32 156 115 156 C115.0825 156.78375 115.165 157.5675 115.25 158.375 C115.70280998 161.12104207 115.70280998 161.12104207 117.875 162.0625 C118.57625 162.371875 119.2775 162.68125 120 163 C122.35127433 165.60319658 123 166.42129926 123 170 C123.99 170 124.98 170 126 170 C126.556875 171.155 127.11375 172.31 127.6875 173.5 C131.41222258 181.07780591 131.41222258 181.07780591 136.65234375 187.60546875 C138 189 138 189 138 191 C138.99 191.33 139.98 191.66 141 192 C142.1328125 193.7421875 142.1328125 193.7421875 143.125 195.875 C143.62386719 196.92300781 143.62386719 196.92300781 144.1328125 197.9921875 C145 200 145 200 146 203 C146.99 203.33 147.98 203.66 149 204 C150.38671875 205.5234375 150.38671875 205.5234375 151.6875 207.375 C152.12449219 207.98085937 152.56148437 208.58671875 153.01171875 209.2109375 C154 211 154 211 154 214 C154.66 214 155.32 214 156 214 C157.26171875 215.8359375 157.26171875 215.8359375 158.6875 218.375 C163.56618339 227.92114268 163.56618339 227.92114268 171 235 C171 235.66 171 236.32 171 237 C171.66 237 172.32 237 173 237 C173.433125 238.0725 173.86625 239.145 174.3125 240.25 C175.28688227 242.55139812 176.17245735 244.22994314 177.6875 246.25 C179 248 179 248 179 251 C171.42904613 251.23233643 163.8584641 251.40969518 156.28475094 251.51812172 C152.76707977 251.57018326 149.2518572 251.64069579 145.7355957 251.75439453 C141.68678228 251.88448453 137.64051329 251.93246269 133.58984375 251.9765625 C132.33541977 252.02817535 131.08099579 252.07978821 129.78855896 252.13296509 C121.25128452 252.13842652 121.25128452 252.13842652 117.67312622 248.88299561 C114.74956444 244.82846207 112.77354818 240.6602011 111 236 C110.34 236 109.68 236 109 236 C108.505 233.525 108.505 233.525 108 231 C107.34 231 106.68 231 106 231 C105.35165346 229.730447 104.70642185 228.45930294 104.0625 227.1875 C103.70285156 226.47980469 103.34320312 225.77210938 102.97265625 225.04296875 C102 223 102 223 101 220 C100.34 220 99.68 220 99 220 C97.52734375 218.171875 97.52734375 218.171875 95.9375 215.75 C95.41027344 214.96109375 94.88304687 214.1721875 94.33984375 213.359375 C93.10569236 211.18611716 92.45326945 209.43982072 92 207 C91.34 207 90.68 207 90 207 C89.4225 205.96875 88.845 204.9375 88.25 203.875 C86.84271244 201.39214266 85.38150836 199.10662318 83.75 196.75 C82 194 82 194 82 191 C81.34 191 80.68 191 80 191 C76.48370003 187.19067503 74.34153938 183.00028314 73 178 C67.90176038 181.18639976 63.30350589 184.79481674 59 189 C58.43311966 189.51357559 57.86623932 190.02715118 57.28218079 190.55628967 C52.52092578 195.29489594 51.19048889 198.72135747 51.08010864 205.40141296 C51.09750092 206.43812637 51.11489319 207.47483978 51.1328125 208.54296875 C51.11793289 210.1729052 51.11793289 210.1729052 51.10275269 211.83576965 C51.0777284 215.287121 51.09993632 218.73618353 51.125 222.1875 C51.1182635 225.6488601 51.10193316 229.11005264 51.08297729 232.57136536 C51.07469374 234.71937008 51.0754043 236.86743313 51.08621216 239.01542664 C51.08886078 239.99026505 51.0915094 240.96510345 51.09423828 241.96948242 C51.10259201 243.24900032 51.10259201 243.24900032 51.1111145 244.55436707 C51 247 51 247 50 252 C33.5 252 17 252 0 252 C0 168.84 0 85.68 0 0 Z " fill="#FEFE04" transform="translate(557,6)"/>
<path d="M0 0 C16.83 0 33.66 0 51 0 C51.11316474 24.31440234 51.20514518 48.62858921 51.25906086 72.94318867 C51.28476781 84.23460172 51.31977372 95.52583869 51.37719727 106.81713867 C51.42726323 116.6664571 51.45934548 126.51564791 51.47044247 136.36509007 C51.47692218 141.57325408 51.49199222 146.78105323 51.52865028 151.9890995 C51.56297752 156.90656052 51.57298007 161.82351177 51.56553841 166.74108124 C51.56689675 168.5311302 51.57660785 170.32119898 51.59602737 172.11114311 C51.74421351 186.49407622 50.76292212 202.02763843 42 214 C41.30570621 215.3191582 40.62469505 216.64649406 40 218 C39.34 218 38.68 218 38 218 C37.62875 219.3303125 37.62875 219.3303125 37.25 220.6875 C35.37080435 225.66736846 32.501866 229.1488182 28 232 C27.34 232 26.68 232 26 232 C25.67 232.99 25.34 233.98 25 235 C20.46507367 237.26746317 15.89027315 238.70258059 11 240 C11 240.66 11 241.32 11 242 C7.18696108 243.19157466 3.59900541 244.11775571 -0.375 244.5625 C-3.8036937 244.59793141 -3.8036937 244.59793141 -5 246 C-7.0605531 246.09993532 -9.1245259 246.13080906 -11.1875 246.1328125 C-12.44304688 246.13410156 -13.69859375 246.13539063 -14.9921875 246.13671875 C-15.64928711 246.13462402 -16.30638672 246.1325293 -16.98339844 246.13037109 C-18.99161335 246.12502234 -20.99960459 246.13031691 -23.0078125 246.13671875 C-24.26335938 246.13542969 -25.51890625 246.13414062 -26.8125 246.1328125 C-27.97394531 246.13168457 -29.13539062 246.13055664 -30.33203125 246.12939453 C-33 246 -33 246 -34 245 C-34.08874135 241.89748799 -34.11518455 238.8173188 -34.09765625 235.71484375 C-34.0962413 234.78402481 -34.09482635 233.85320587 -34.09336853 232.8941803 C-34.08775172 229.90858809 -34.0751964 226.92306971 -34.0625 223.9375 C-34.05748716 221.91862087 -34.05292388 219.89974057 -34.04882812 217.88085938 C-34.03777683 212.92054428 -34.02050095 207.96028468 -34 203 C-32.90083252 202.96334229 -31.80166504 202.92668457 -30.66918945 202.88891602 C-29.21302012 202.82381944 -27.75688555 202.75794163 -26.30078125 202.69140625 C-25.57797974 202.66937134 -24.85517822 202.64733643 -24.11047363 202.62463379 C-18.68854278 202.35407836 -15.45404741 201.14180812 -11.48046875 197.27734375 C-10 196 -10 196 -7 196 C-6.896875 195.4225 -6.79375 194.845 -6.6875 194.25 C-6 192 -6 192 -4.56116962 190.18156815 C1.68945802 181.44698227 0.41133504 168.73807499 0.34057617 158.48144531 C0.33972831 156.74570734 0.34020815 155.0099683 0.34190369 153.27423096 C0.34275885 148.59730867 0.32521129 143.92062067 0.30418181 139.24375248 C0.28533455 134.34307631 0.28365826 129.44239383 0.28010559 124.54168701 C0.27080866 115.27721822 0.24622693 106.01285656 0.21605712 96.74843478 C0.18243962 86.19456349 0.16600867 75.64068688 0.15097082 65.0867753 C0.1196751 43.39111059 0.06469265 21.6955926 0 0 Z " fill="#FEFE01" transform="translate(38,78)"/>
<path d="M0 0 C18.15 0 36.3 0 55 0 C55 16.5 55 33 55 50 C36.85 50 18.7 50 0 50 C0 33.5 0 17 0 0 Z " fill="#FEFE07" transform="translate(37,6)"/>
<path d="M0 0 C16.83 0 33.66 0 51 0 C51.88639389 2.65918166 52.17989025 4.48064641 52.31640625 7.23046875 C52.35830078 8.03291016 52.40019531 8.83535156 52.44335938 9.66210938 C52.48267578 10.49548828 52.52199219 11.32886719 52.5625 12.1875 C52.60568359 13.03248047 52.64886719 13.87746094 52.69335938 14.74804688 C52.79931518 16.83184433 52.9001502 18.91590103 53 21 C53.28875 20.37609375 53.5775 19.7521875 53.875 19.109375 C55.2132814 16.60009737 56.6051332 15.49679175 59 14 C59.66 14 60.32 14 61 14 C61 16 61 16 59.125 18.125 C57 20 57 20 55 20 C55 21.32 55 22.64 55 24 C53.33388095 24.042721 51.66617115 24.04063832 50 24 C49.67 23.67 49.34 23.34 49 23 C49 16.07 49 9.14 49 2 C33.16 2 17.32 2 1 2 C1 82.19 1 162.38 1 245 C16.84 245 32.68 245 49 245 C49.02505615 240.11574219 49.0501123 235.23148438 49.07592773 230.19921875 C49.15956231 214.02617572 49.24818094 197.85316281 49.33933926 181.68016052 C49.3944646 171.87858198 49.44791097 162.07699981 49.49731445 152.27539062 C49.54041146 143.72584634 49.58675071 135.17632662 49.63687855 126.62682056 C49.66327579 122.10582598 49.68812066 117.58483562 49.70907402 113.06381226 C49.72890669 108.7956988 49.75312238 104.5276312 49.78049088 100.25955963 C49.78972257 98.70533343 49.79744515 97.1510973 49.80341911 95.59685516 C49.84391312 85.36338585 50.25724727 75.20693549 51 65 C51.66 65 52.32 65 53 65 C52.89244919 86.36741207 52.77963399 107.73479069 52.66066074 129.10214233 C52.60553243 139.02478932 52.55208552 148.94743989 52.50268555 158.87011719 C52.45959223 167.52513667 52.41325381 176.18013186 52.36312145 184.83511353 C52.3367213 189.41199956 52.31187626 193.98888141 52.29092598 198.5657959 C52.27109725 202.88643869 52.2468825 207.20703611 52.21950912 211.52763748 C52.21027541 213.10121446 52.20255348 214.67480128 52.19658089 216.24839401 C52.18808107 218.42361918 52.17375039 220.59874085 52.15821838 222.77392578 C52.15176583 223.98331818 52.14531328 225.19271057 52.1386652 226.43875122 C51.93008345 233.29983271 51.42818023 240.14911632 51 247 C34.17 247 17.34 247 0 247 C0 165.49 0 83.98 0 0 Z " fill="#FBF856" transform="translate(190,79)"/>
<path d="M0 0 C16.83 0 33.66 0 51 0 C51.11316474 24.31440234 51.20514518 48.62858921 51.25906086 72.94318867 C51.28476781 84.23460172 51.31977372 95.52583869 51.37719727 106.81713867 C51.42726323 116.6664571 51.45934548 126.51564791 51.47044247 136.36509007 C51.47692218 141.57325408 51.49199222 146.78105323 51.52865028 151.9890995 C51.56297752 156.90656052 51.57298007 161.82351177 51.56553841 166.74108124 C51.56689675 168.5311302 51.57660785 170.32119898 51.59602737 172.11114311 C51.74343599 186.41861 50.82833067 202.1394018 42 214 C40.90341064 210.71023192 41.20046862 209.28696233 42 206 C42.99 206 43.98 206 45 206 C45 203.69 45 201.38 45 199 C45.66 199 46.32 199 47 199 C47 195.7 47 192.4 47 189 C47.99 188.67 48.98 188.34 50 188 C50 126.29 50 64.58 50 1 C34.16 1 18.32 1 2 1 C2.495 5.95 2.495 5.95 3 11 C2.67 11.33 2.34 11.66 2 12 C1.90969732 14.1099245 1.89149792 16.22293863 1.89993286 18.33477783 C1.90119513 19.00432959 1.90245741 19.67388135 1.90375793 20.36372256 C1.90916771 22.62435802 1.92169706 24.88490059 1.93408203 27.14550781 C1.93927183 28.76000832 1.94398064 30.37451044 1.94824219 31.98901367 C1.9582098 35.47632541 1.97107022 38.96361074 1.98596573 42.45090485 C2.00899438 47.97415649 2.02232453 53.49740444 2.03366089 59.02069092 C2.0671163 74.7309632 2.10847644 90.44118316 2.17138672 106.15136719 C2.20601914 114.82025394 2.22975969 123.48910071 2.24159515 132.15804935 C2.24834156 136.74329469 2.2606976 141.32837108 2.28662491 145.91355133 C2.31106943 150.23749377 2.32126807 154.5612446 2.32102966 158.88525391 C2.32343115 160.46334251 2.33091468 162.04143383 2.34415817 163.61946869 C2.418521 172.87498439 2.35476719 182.2285023 -1 191 C-1.99 191.66 -2.98 192.32 -4 193 C-5.0064275 194.66279327 -6.00585407 196.32983484 -7 198 C-10.80825465 202.59616941 -14.79519168 203.7497755 -20.6484375 204.4140625 C-22.49308594 204.51847656 -22.49308594 204.51847656 -24.375 204.625 C-26.24285156 204.73714844 -26.24285156 204.73714844 -28.1484375 204.8515625 C-29.08945312 204.90054688 -30.03046875 204.94953125 -31 205 C-32.26625424 208.79876271 -32.23298547 212.42421926 -32.31640625 216.38671875 C-32.33718735 217.20372757 -32.35796844 218.02073639 -32.37937927 218.86250305 C-32.44473079 221.47075034 -32.50369273 224.07909775 -32.5625 226.6875 C-32.60569892 228.45639054 -32.64931365 230.22527097 -32.69335938 231.99414062 C-32.80039743 236.32932463 -32.90170544 240.66460929 -33 245 C-33.33 245 -33.66 245 -34 245 C-34 231.14 -34 217.28 -34 203 C-28.72 202.67 -23.44 202.34 -18 202 C-13.53423103 199.38726838 -13.53423103 199.38726838 -11.48046875 197.27734375 C-10 196 -10 196 -7 196 C-6.896875 195.4225 -6.79375 194.845 -6.6875 194.25 C-6 192 -6 192 -4.56116962 190.18156815 C1.68945802 181.44698227 0.41133504 168.73807499 0.34057617 158.48144531 C0.33972831 156.74570734 0.34020815 155.0099683 0.34190369 153.27423096 C0.34275885 148.59730867 0.32521129 143.92062067 0.30418181 139.24375248 C0.28533455 134.34307631 0.28365826 129.44239383 0.28010559 124.54168701 C0.27080866 115.27721822 0.24622693 106.01285656 0.21605712 96.74843478 C0.18243962 86.19456349 0.16600867 75.64068688 0.15097082 65.0867753 C0.1196751 43.39111059 0.06469265 21.6955926 0 0 Z " fill="#FCFA52" transform="translate(38,78)"/>
<path d="M0 0 C0.66 0 1.32 0 2 0 C1.86722656 0.71285156 1.73445313 1.42570313 1.59765625 2.16015625 C1.42105469 3.11792969 1.24445313 4.07570312 1.0625 5.0625 C0.88847656 6.00222656 0.71445312 6.94195312 0.53515625 7.91015625 C-0.46942898 13.71035272 -1.12717647 19.2882184 -1.15821838 25.18174744 C-1.16315636 25.86968165 -1.16809434 26.55761587 -1.17318195 27.26639658 C-1.18843896 29.5525141 -1.19688525 31.8386038 -1.20532227 34.12475586 C-1.21491009 35.7710901 -1.22492069 37.41742192 -1.23532104 39.06375122 C-1.26227822 43.51979065 -1.28333733 47.97584058 -1.30332303 52.431916 C-1.32523947 57.0937545 -1.3526004 61.75556101 -1.37937927 66.41737366 C-1.42922982 75.23924045 -1.4741969 84.06112509 -1.51740164 92.88302666 C-1.56683941 102.9289682 -1.62173323 112.97487763 -1.67708123 123.02078807 C-1.79078399 143.68049685 -1.8969282 164.34023526 -2 185 C-18.83 185 -35.66 185 -53 185 C-53 129.23 -53 73.46 -53 16 C-52.67 16 -52.34 16 -52 16 C-52 71.11 -52 126.22 -52 183 C-35.83 183 -19.66 183 -3 183 C-3.00523682 177.79597412 -3.01047363 172.59194824 -3.01586914 167.23022461 C-3.0324263 150.05131451 -3.04353068 132.87240411 -3.05181217 115.69348812 C-3.05696758 105.27620474 -3.06399593 94.85892892 -3.07543945 84.44165039 C-3.08540932 75.36154044 -3.09185892 66.28143598 -3.09408849 57.20132071 C-3.09539168 52.39387526 -3.09845279 47.58644548 -3.10573006 42.77900505 C-3.11252658 38.2523987 -3.11460955 33.72581445 -3.11310768 29.19920349 C-3.11338237 27.53959597 -3.11536592 25.8799877 -3.11920547 24.2203846 C-3.12419948 21.95007301 -3.12297731 19.67984425 -3.12025452 17.40953064 C-3.12117631 16.1402217 -3.1220981 14.87091276 -3.12304783 13.56313992 C-2.99918955 9.97653152 -2.57409143 6.54013615 -2 3 C-1.34 3 -0.68 3 0 3 C0 2.01 0 1.02 0 0 Z " fill="#FBF943" transform="translate(357,141)"/>
<path d="M0 0 C16.83 0 33.66 0 51 0 C51.11316474 24.31440234 51.20514518 48.62858921 51.25906086 72.94318867 C51.28476781 84.23460172 51.31977372 95.52583869 51.37719727 106.81713867 C51.42726323 116.6664571 51.45934548 126.51564791 51.47044247 136.36509007 C51.47692218 141.57325408 51.49199222 146.78105323 51.52865028 151.9890995 C51.56297752 156.90656052 51.57298007 161.82351177 51.56553841 166.74108124 C51.56689675 168.5311302 51.57660785 170.32119898 51.59602737 172.11114311 C51.74343599 186.41861 50.82833067 202.1394018 42 214 C40.90341064 210.71023192 41.20046862 209.28696233 42 206 C42.99 206 43.98 206 45 206 C45 203.69 45 201.38 45 199 C45.66 199 46.32 199 47 199 C47 195.7 47 192.4 47 189 C47.99 188.67 48.98 188.34 50 188 C50 126.29 50 64.58 50 1 C33.83 1 17.66 1 1 1 C1 3.97 1 6.94 1 10 C0.67 10 0.34 10 0 10 C0 6.7 0 3.4 0 0 Z " fill="#F8F446" transform="translate(38,78)"/>
<path d="M0 0 C0 3.10551666 -0.5393715 4.35261084 -2 7 C-2.99 7 -3.98 7 -5 7 C-5.0825 7.5775 -5.165 8.155 -5.25 8.75 C-6.225982 11.67794601 -7.63511223 13.05244537 -10 15 C-10.99 15 -11.98 15 -13 15 C-13.11601563 15.83337891 -13.11601563 15.83337891 -13.234375 16.68359375 C-14.27153617 19.82153547 -16.03072302 21.62643934 -18.25 24.0625 C-19.01828125 24.91972656 -19.7865625 25.77695313 -20.578125 26.66015625 C-22.93003037 28.93240031 -25.20425974 30.34259046 -28 32 C-29.65600122 33.78191836 -31.09204516 35.64448057 -32.5703125 37.57421875 C-34 39 -34 39 -37 39 C-37.33 40.32 -37.66 41.64 -38 43 C-40.475 43.495 -40.475 43.495 -43 44 C-38.89052861 38.08582467 -34.33349549 33.25451677 -29 28.4375 C-22.57832535 22.53062249 -16.48595755 16.44052273 -10.64257812 9.96069336 C-7.31148724 6.29087345 -3.87980668 3.08872166 0 0 Z " fill="#FBFC57" transform="translate(654,92)"/>
<path d="M0 0 C2 1.8125 2 1.8125 4 4 C4 4.99 4 5.98 4 7 C-3.64063702 7.11581577 -11.28118313 7.20467513 -18.92249775 7.25906086 C-22.47070108 7.28516304 -26.01830424 7.32056949 -29.56616211 7.37719727 C-33.64442728 7.44188405 -37.72206146 7.46617492 -41.80078125 7.48828125 C-43.71338493 7.52699089 -43.71338493 7.52699089 -45.66462708 7.56648254 C-46.84562485 7.5668602 -48.02662262 7.56723785 -49.2434082 7.56762695 C-50.80560844 7.58428154 -50.80560844 7.58428154 -52.39936829 7.60127258 C-55 7 -55 7 -56.85978699 4.46452332 C-57.23605728 3.65123062 -57.61232758 2.83793793 -58 2 C-57.01 2.33 -56.02 2.66 -55 3 C-55 3.66 -55 4.32 -55 5 C-36.52 5 -18.04 5 1 5 C0.505 2.525 0.505 2.525 0 0 Z " fill="#FCFB6B" transform="translate(732,250)"/>
<path d="M0 0 C1.46534385 3.80989402 0.55203911 6.3241179 -1 10 C-1.99 10.495 -1.99 10.495 -3 11 C-3.45375 11.763125 -3.9075 12.52625 -4.375 13.3125 C-7.48487038 18.45574716 -10.2376423 20.39520708 -16 22 C-18.45140859 22.27821125 -20.91179765 22.48557345 -23.375 22.625 C-25.24285156 22.73714844 -25.24285156 22.73714844 -27.1484375 22.8515625 C-28.55996094 22.92503906 -28.55996094 22.92503906 -30 23 C-31.26625424 26.79876271 -31.23298547 30.42421926 -31.31640625 34.38671875 C-31.33718735 35.20372757 -31.35796844 36.02073639 -31.37937927 36.86250305 C-31.44473079 39.47075034 -31.50369273 42.07909775 -31.5625 44.6875 C-31.60569892 46.45639054 -31.64931365 48.22527097 -31.69335938 49.99414062 C-31.80039743 54.32932463 -31.90170544 58.66460929 -32 63 C-32.33 63 -32.66 63 -33 63 C-33 49.14 -33 35.28 -33 21 C-27.72 20.67 -22.44 20.34 -17 20 C-12.53423103 17.38726838 -12.53423103 17.38726838 -10.48046875 15.27734375 C-9 14 -9 14 -6 14 C-5.896875 13.4225 -5.79375 12.845 -5.6875 12.25 C-5 10 -5 10 -3.5625 8.125 C-1.6747986 5.5577261 -0.89779129 3.03867821 0 0 Z " fill="#FCFC45" transform="translate(37,260)"/>
<path d="M0 0 C0.66 0 1.32 0 2 0 C1.86722656 0.71285156 1.73445313 1.42570313 1.59765625 2.16015625 C1.42105469 3.11792969 1.24445313 4.07570312 1.0625 5.0625 C0.88847656 6.00222656 0.71445312 6.94195312 0.53515625 7.91015625 C-0.50050788 13.88979369 -1.15436236 19.70179456 -1.20532227 25.77124023 C-1.21522186 26.51353378 -1.22512146 27.25582733 -1.23532104 28.02061462 C-1.26665797 30.44990966 -1.29158224 32.87922419 -1.31640625 35.30859375 C-1.33699986 37.00253275 -1.35799693 38.69646689 -1.37937927 40.39039612 C-1.4343515 44.83067874 -1.48386948 49.27100581 -1.53222656 53.71136475 C-1.58262399 58.24967363 -1.63821447 62.78791863 -1.69335938 67.32617188 C-1.80063662 76.21739323 -1.9021481 85.10867026 -2 94 C-2.33 94 -2.66 94 -3 94 C-3.02319818 83.1686597 -3.04095319 72.33732534 -3.05181217 61.50596523 C-3.05702464 56.47621723 -3.06409256 51.44648625 -3.07543945 46.41674805 C-3.08632649 41.56030676 -3.09228916 36.70388183 -3.09487724 31.84742928 C-3.09672101 29.99713954 -3.10032141 28.14685067 -3.10573006 26.29656792 C-3.11301769 23.6995642 -3.11398769 21.10262758 -3.11352539 18.50561523 C-3.11712067 17.74532013 -3.12071594 16.98502502 -3.12442017 16.20169067 C-3.11578229 11.70003033 -2.73766948 7.44243593 -2 3 C-1.34 3 -0.68 3 0 3 C0 2.01 0 1.02 0 0 Z " fill="#F9F635" transform="translate(357,141)"/>
<path d="M0 0 C1.1125264 0.00888245 2.2250528 0.01776489 3.37129211 0.0269165 C4.63237289 0.02721863 5.89345367 0.02752075 7.19274902 0.02783203 C8.56908294 0.04825861 9.94541043 0.06912259 11.32173157 0.09039307 C12.72991127 0.09785458 14.13810136 0.10354794 15.54629517 0.10754395 C19.25046011 0.12280768 22.95399643 0.16209471 26.65791321 0.20635986 C30.43834428 0.24729731 34.21887705 0.26555162 37.99946594 0.28570557 C45.41576798 0.32858924 52.83155228 0.39684827 60.24751282 0.48101807 C60.24751282 2.13101807 60.24751282 3.78101807 60.24751282 5.48101807 C59.58751282 5.48101807 58.92751282 5.48101807 58.24751282 5.48101807 C58.24751282 4.16101807 58.24751282 2.84101807 58.24751282 1.48101807 C50.7541047 1.54226277 43.26100247 1.61939297 35.76797867 1.71673298 C32.28852409 1.76143602 28.80918656 1.80069185 25.32954407 1.82745361 C21.32794108 1.85846945 17.32696914 1.91325804 13.32563782 1.96929932 C12.07760376 1.97568924 10.8295697 1.98207916 9.54371643 1.98866272 C7.8023642 2.01835396 7.8023642 2.01835396 6.02583313 2.04864502 C5.00435181 2.05974808 3.98287048 2.07085114 2.93043518 2.08229065 C-0.10383619 2.53323444 -1.49635472 3.45324224 -3.75248718 5.48101807 C-4.41248718 5.15101807 -5.07248718 4.82101807 -5.75248718 4.48101807 C-4.09700145 1.55960723 -3.38030392 0.59073382 0 0 Z " fill="#FBF855" transform="translate(669.7524871826172,77.51898193359375)"/>
<path d="M0 0 C0.66 0.33 1.32 0.66 2 1 C1.67 4.63 1.34 8.26 1 12 C0.34 12 -0.32 12 -1 12 C-1 26.19 -1 40.38 -1 55 C-1.33 55 -1.66 55 -2 55 C-2.05068173 47.81008919 -2.08572588 40.6202244 -2.10986328 33.43017578 C-2.11992504 30.98386921 -2.13357581 28.53757467 -2.15087891 26.09130859 C-2.17511919 22.57646718 -2.18648138 19.0617847 -2.1953125 15.546875 C-2.20563507 14.4519574 -2.21595764 13.35703979 -2.22659302 12.22894287 C-2.22674408 11.20818665 -2.22689514 10.18743042 -2.22705078 9.13574219 C-2.231492 8.23861511 -2.23593323 7.34148804 -2.24050903 6.41717529 C-1.98449501 3.84417106 -1.30021324 2.21450429 0 0 Z " fill="#FBFC18" transform="translate(607,202)"/>
<path d="M0 0 C1.11000366 0.0012085 1.11000366 0.0012085 2.24243164 0.00244141 C17.73674486 0.17424486 17.73674486 0.17424486 21.75 4.1875 C20.73164063 4.043125 19.71328125 3.89875 18.6640625 3.75 C7.9693249 2.31893314 -2.46855309 1.96052217 -13.25 2.1875 C-13.25 2.8475 -13.25 3.5075 -13.25 4.1875 C-16.72325181 5.3452506 -19.61067448 5.25616652 -23.25 5.1875 C-17.56270194 -0.49979806 -7.60283454 -0.00864646 0 0 Z " fill="#FAF960" transform="translate(292.25,75.8125)"/>
<path d="M0 0 C0.33 0 0.66 0 1 0 C1.46997582 9.55617495 0.00978532 18.33234286 -6 26 C-7.09658936 22.71023192 -6.79953138 21.28696233 -6 18 C-5.01 18 -4.02 18 -3 18 C-3 15.69 -3 13.38 -3 11 C-2.34 11 -1.68 11 -1 11 C-1.01160156 10.28972656 -1.02320312 9.57945312 -1.03515625 8.84765625 C-1.04869141 7.46900391 -1.04869141 7.46900391 -1.0625 6.0625 C-1.07410156 5.14597656 -1.08570312 4.22945313 -1.09765625 3.28515625 C-1 1 -1 1 0 0 Z " fill="#FCFD41" transform="translate(86,266)"/>
<path d="M0 0 C3.44862127 1.14954042 3.84195809 1.82527151 5.6875 4.8125 C6.12449219 5.49957031 6.56148438 6.18664062 7.01171875 6.89453125 C8 9 8 9 8 13 C8.99 13.33 9.98 13.66 11 14 C11.33 16.97 11.66 19.94 12 23 C10.0549 20.08235 9.54723683 18.37462715 9 15 C8.01 14.67 7.02 14.34 6 14 C6 12.35 6 10.7 6 9 C5.34 9 4.68 9 4 9 C4 7.68 4 6.36 4 5 C2.68 4.67 1.36 4.34 0 4 C0 2.68 0 1.36 0 0 Z " fill="#FCFD64" transform="translate(455,96)"/>
<path d="M0 0 C2.8125 0.5625 2.8125 0.5625 6 2 C7.8125 5.5625 7.8125 5.5625 9 9 C9.33 9.33 9.66 9.66 10 10 C11.20973702 16.98959167 11.09708765 23.92338914 11 31 C10.67 31 10.34 31 10 31 C9.91363281 29.90042969 9.82726562 28.80085938 9.73828125 27.66796875 C8.35911327 12.41357237 8.35911327 12.41357237 0 0 Z " fill="#FAF947" transform="translate(295,126)"/>
<path d="M0 0 C0.33 0.99 0.66 1.98 1 3 C0.01 3.33 -0.98 3.66 -2 4 C-2.68025637 5.99541868 -3.34490497 7.99617991 -4 10 C-6.29137321 13.28430161 -8.60657125 15.85082846 -12 18 C-12.66 18 -13.32 18 -14 18 C-14 17.34 -14 16.68 -14 16 C-13.34 16 -12.68 16 -12 16 C-11.71125 15.401875 -11.4225 14.80375 -11.125 14.1875 C-10 12 -10 12 -8 9 C-7.01 9 -6.02 9 -5 9 C-5 7.68 -5 6.36 -5 5 C-4.34 5 -3.68 5 -3 5 C-3 4.01 -3 3.02 -3 2 C-2.01 1.34 -1.02 0.68 0 0 Z " fill="#FBFC3A" transform="translate(78,292)"/>
<path d="M0 0 C1.33333333 1.33333333 2.66666667 2.66666667 4 4 C5.11375 5.051875 5.11375 5.051875 6.25 6.125 C8 8 8 8 8 10 C8.66 10 9.32 10 10 10 C10.66 12.31 11.32 14.62 12 17 C10.68 16.67 9.36 16.34 8 16 C8 14.68 8 13.36 8 12 C7.34 12 6.68 12 6 12 C4.375 10.75 4.375 10.75 3 9 C3 7.68 3 6.36 3 5 C2.01 4.67 1.02 4.34 0 4 C0 2.68 0 1.36 0 0 Z " fill="#FBFC33" transform="translate(720,233)"/>
<path d="M0 0 C-2.35953094 2.35953094 -3.77895617 2.49141413 -7 3 C-7 3.66 -7 4.32 -7 5 C-12.24385089 6.7479503 -16.47322267 7.19392201 -22 7 C-20.22555028 4.75393573 -19.41647515 4.04918998 -16.51953125 3.70703125 C-15.62621094 3.74183594 -14.73289062 3.77664063 -13.8125 3.8125 C-12.91144531 3.83957031 -12.01039062 3.86664063 -11.08203125 3.89453125 C-10.05142578 3.94673828 -10.05142578 3.94673828 -9 4 C-9 3.01 -9 2.02 -9 1 C-5.92677456 0.08941469 -3.19902639 -0.08886184 0 0 Z " fill="#FCFC45" transform="translate(56,315)"/>
<path d="M0 0 C3.125 6.625 3.125 6.625 2 10 C-2 3.25 -2 3.25 -2 1 C-6.27454425 3.7479213 -10.14126153 6.69250989 -14 10 C-14 7.25 -14 7.25 -13 4 C-9.1370738 1.0215756 -4.90685424 -0.61335678 0 0 Z " fill="#FCFC69" transform="translate(632,183)"/>
<path d="M0 0 C5.61 0 11.22 0 17 0 C17.33 0.66 17.66 1.32 18 2 C16.783125 1.938125 15.56625 1.87625 14.3125 1.8125 C8.00136559 1.78225495 2.07327485 3.42301364 -4 5 C-4 4.01 -4 3.02 -4 2 C-2.68 2 -1.36 2 0 2 C0 1.34 0 0.68 0 0 Z " fill="#FBF952" transform="translate(378,117)"/>
<path d="M0 0 C0.66 0 1.32 0 2 0 C1.87882812 0.65484375 1.75765625 1.3096875 1.6328125 1.984375 C0.34866543 8.97803753 -0.84891337 15.9832698 -2 23 C-2.33 23 -2.66 23 -3 23 C-3.18451025 9.3667426 -3.18451025 9.3667426 -2 3 C-1.34 3 -0.68 3 0 3 C0 2.01 0 1.02 0 0 Z " fill="#FBFC44" transform="translate(357,141)"/>
<path d="M0 0 C-2.66559313 1.77706209 -5.0280615 2.87548273 -8 4 C-8 4.66 -8 5.32 -8 6 C-8.99 6 -9.98 6 -11 6 C-11.309375 6.61875 -11.61875 7.2375 -11.9375 7.875 C-12.625 9.25 -13.3125 10.625 -14 12 C-15.32 11.67 -16.64 11.34 -18 11 C-7.13196481 -0.18768328 -7.13196481 -0.18768328 0 0 Z " fill="#FCFC5E" transform="translate(269,81)"/>
<path d="M0 0 C0 3.10551666 -0.5393715 4.35261084 -2 7 C-2.99 7 -3.98 7 -5 7 C-5.0825 7.5775 -5.165 8.155 -5.25 8.75 C-6.20531013 11.6159304 -7.78469173 12.9990764 -10 15 C-10.99 14.67 -11.98 14.34 -13 14 C-12.57847656 13.60167969 -12.15695312 13.20335938 -11.72265625 12.79296875 C-11.17480469 12.26316406 -10.62695312 11.73335937 -10.0625 11.1875 C-9.51722656 10.66542969 -8.97195313 10.14335938 -8.41015625 9.60546875 C-6.76480908 7.94187802 -6.76480908 7.94187802 -6 5 C-4.12382302 3.15500602 -2.07262391 1.6316401 0 0 Z " fill="#F7FB23" transform="translate(654,92)"/>
<path d="M0 0 C6.6 0 13.2 0 20 0 C20 0.66 20 1.32 20 2 C19.24976563 1.97679688 18.49953125 1.95359375 17.7265625 1.9296875 C10.87072063 1.80880364 4.65635083 2.35063873 -2 4 C-1.34 2.68 -0.68 1.36 0 0 Z " fill="#FBFA49" transform="translate(264,117)"/>
<path d="M0 0 C-2.38198208 1.19099104 -4.75828946 2.34197368 -7.1875 3.4375 C-10.29115029 4.74724316 -10.29115029 4.74724316 -11 8 C-12.77734375 9.203125 -12.77734375 9.203125 -14.9375 10.25 C-15.64777344 10.60578125 -16.35804688 10.9615625 -17.08984375 11.328125 C-17.72019531 11.54984375 -18.35054688 11.7715625 -19 12 C-19.66 11.67 -20.32 11.34 -21 11 C-19.68 10.34 -18.36 9.68 -17 9 C-17 8.34 -17 7.68 -17 7 C-16.38511719 6.66226563 -15.77023437 6.32453125 -15.13671875 5.9765625 C-14.32847656 5.53054687 -13.52023437 5.08453125 -12.6875 4.625 C-11.88699219 4.18414062 -11.08648437 3.74328125 -10.26171875 3.2890625 C-4.1018851 -0.22172352 -4.1018851 -0.22172352 0 0 Z " fill="#FCFC58" transform="translate(381,81)"/>
<path d="M0 0 C0.66 0.33 1.32 0.66 2 1 C1.67 4.63 1.34 8.26 1 12 C0.34 12 -0.32 12 -1 12 C-1.33 13.32 -1.66 14.64 -2 16 C-2.05423638 14.08364783 -2.09289963 12.16685075 -2.125 10.25 C-2.14820313 9.18265625 -2.17140625 8.1153125 -2.1953125 7.015625 C-2.00487687 4.07529894 -1.52670104 2.47638122 0 0 Z " fill="#FEFB28" transform="translate(607,202)"/>
<path d="M0 0 C0.33 1.32 0.66 2.64 1 4 C0.01 4 -0.98 4 -2 4 C-2 4.99 -2 5.98 -2 7 C-2.66 7 -3.32 7 -4 7 C-4.33 8.32 -4.66 9.64 -5 11 C-6.65 11.33 -8.3 11.66 -10 12 C-3.84965831 3.55353075 -3.84965831 3.55353075 0 0 Z " fill="#FCFC72" transform="translate(621,124)"/>
<path d="M0 0 C0.99 0.33 1.98 0.66 3 1 C2.0479279 2.00596297 1.08812654 3.00461563 0.125 4 C-0.40867187 4.556875 -0.94234375 5.11375 -1.4921875 5.6875 C-3 7 -3 7 -5 7 C-5 9.31 -5 11.62 -5 14 C-5.66 14 -6.32 14 -7 14 C-7.33 12.02 -7.66 10.04 -8 8 C-7.34 8 -6.68 8 -6 8 C-6 7.01 -6 6.02 -6 5 C-5.01 5 -4.02 5 -3 5 C-2.67 4.01 -2.34 3.02 -2 2 C-1.34 2 -0.68 2 0 2 C0 1.34 0 0.68 0 0 Z " fill="#FCFD53" transform="translate(669,138)"/>
<path d="M0 0 C0.33 1.32 0.66 2.64 1 4 C-1.1875 6.8125 -1.1875 6.8125 -4 9 C-5.32 8.67 -6.64 8.34 -8 8 C-5.36 5.36 -2.72 2.72 0 0 Z " fill="#FAFC47" transform="translate(663,83)"/>
<path d="M0 0 C0 3 0 3 -1.375 4.6875 C-3 6 -3 6 -5 6 C-5.2475 6.598125 -5.495 7.19625 -5.75 7.8125 C-7.16370012 10.28647521 -8.65055383 11.43370255 -11 13 C-9.5 10 -9.5 10 -8 7 C-7.34 7 -6.68 7 -6 7 C-5.67 5.68 -5.34 4.36 -5 3 C-4.01 3 -3.02 3 -2 3 C-2 2.34 -2 1.68 -2 1 C-1.34 0.67 -0.68 0.34 0 0 Z " fill="#FBFD54" transform="translate(725,84)"/>
<path d="M0 0 C1.485 0.99 1.485 0.99 3 2 C3 2.66 3 3.32 3 4 C3.99 4.33 4.98 4.66 6 5 C7.1875 7.5625 7.1875 7.5625 8 10 C5.125 8.9375 5.125 8.9375 2 7 C0.625 3.3125 0.625 3.3125 0 0 Z " fill="#FCFC4E" transform="translate(700,205)"/>
<path d="M0 0 C0.33 0.66 0.66 1.32 1 2 C-0.30406884 4.01920337 -1.63823419 6.01924973 -3 8 C-3.33 8 -3.66 8 -4 8 C-4.25 5.6875 -4.25 5.6875 -4 3 C-2 1.1875 -2 1.1875 0 0 Z M-7 8 C-6.01 8.33 -5.02 8.66 -4 9 C-4.99 9.66 -5.98 10.32 -7 11 C-7 10.01 -7 9.02 -7 8 Z " fill="#FBFB43" transform="translate(626,120)"/>
<path d="M0 0 C4.02550319 1.3418344 4.88285636 3.4227573 7 7 C7 7.66 7 8.32 7 9 C6.01 9 5.02 9 4 9 C4 7.68 4 6.36 4 5 C2.68 4.67 1.36 4.34 0 4 C0 2.68 0 1.36 0 0 Z " fill="#FCFD79" transform="translate(455,96)"/>
<path d="M0 0 C1.41805831 0.28482368 2.83440379 0.57818144 4.25 0.875 C5.03890625 1.03742188 5.8278125 1.19984375 6.640625 1.3671875 C9 2 9 2 13 4 C9.7 4.33 6.4 4.66 3 5 C2.67 4.01 2.34 3.02 2 2 C1.34 1.34 0.68 0.68 0 0 Z " fill="#FDFA3B" transform="translate(426,79)"/>
<path d="M0 0 C0.268125 0.639375 0.53625 1.27875 0.8125 1.9375 C1.88667752 4.33131686 1.88667752 4.33131686 5 5 C6.1875 8.5625 6.1875 8.5625 7 12 C4.39143674 9.5218649 2.07956671 6.94007708 0 4 C0 2.68 0 1.36 0 0 Z " fill="#FEFD5E" transform="translate(693,193)"/>
<path d="M0 0 C0.66 0 1.32 0 2 0 C1.67 1.32 1.34 2.64 1 4 C0.443125 4.061875 -0.11375 4.12375 -0.6875 4.1875 C-3.94987173 5.33373872 -5.68667874 7.49390197 -8 10 C-6.55922954 6.63820226 -4.75249979 4.40843732 -2 2 C-1.34 2 -0.68 2 0 2 C0 1.34 0 0.68 0 0 Z " fill="#FCFD71" transform="translate(358,93)"/>
<path d="M0 0 C7.26153846 0.36923077 7.26153846 0.36923077 11 3.5625 C11.99 4.7690625 11.99 4.7690625 13 6 C11.35 5.67 9.7 5.34 8 5 C8 4.34 8 3.68 8 3 C5.36 2.34 2.72 1.68 0 1 C0 0.67 0 0.34 0 0 Z " fill="#FBFB52" transform="translate(314,80)"/>
<path d="M0 0 C1.18815699 3.98635281 0.78910862 6.1778134 -1 10 C-3.625 11.875 -3.625 11.875 -6 13 C-5.71382812 12.43796875 -5.42765625 11.8759375 -5.1328125 11.296875 C-3.98584069 8.97129077 -2.92160206 6.62229799 -1.875 4.25 C-1.52179687 3.45078125 -1.16859375 2.6515625 -0.8046875 1.828125 C-0.53914063 1.22484375 -0.27359375 0.6215625 0 0 Z " fill="#FBFB63" transform="translate(37,260)"/>
<path d="M0 0 C0.33 0.66 0.66 1.32 1 2 C1.66 2 2.32 2 3 2 C3.66 4.31 4.32 6.62 5 9 C3.68 8.67 2.36 8.34 1 8 C0.67 5.36 0.34 2.72 0 0 Z " fill="#FAFD59" transform="translate(727,241)"/>
<path d="M0 0 C1.32 0.33 2.64 0.66 4 1 C2.35830472 3.02054804 0.69088222 5.02043058 -1 7 C-1.33 7 -1.66 7 -2 7 C-2 5.35 -2 3.7 -2 2 C-1.34 2 -0.68 2 0 2 C0 1.34 0 0.68 0 0 Z " fill="#FBFA4B" transform="translate(613,193)"/>
<path d="M0 0 C1.65 0 3.3 0 5 0 C4.67 0.99 4.34 1.98 4 3 C0.4375 4.1875 0.4375 4.1875 -3 5 C-3 4.34 -3 3.68 -3 3 C-2.34 3 -1.68 3 -1 3 C-0.67 2.01 -0.34 1.02 0 0 Z " fill="#FCFE65" transform="translate(59,310)"/>
<path d="M0 0 C0 0.99 0 1.98 0 3 C-4.34285714 7 -4.34285714 7 -7 7 C-7 6.34 -7 5.68 -7 5 C-6.34 5 -5.68 5 -5 5 C-4.731875 4.360625 -4.46375 3.72125 -4.1875 3.0625 C-3 1 -3 1 0 0 Z " fill="#FCFD88" transform="translate(71,303)"/>
<path d="M0 0 C0.99 0.33 1.98 0.66 3 1 C3 1.66 3 2.32 3 3 C3.66 3 4.32 3 5 3 C5.33 5.31 5.66 7.62 6 10 C3.25722422 6.80009492 1.3697164 3.99500618 0 0 Z " fill="#FCFC44" transform="translate(668,242)"/>
<path d="M0 0 C2.97 0.33 5.94 0.66 9 1 C9.66 2.65 10.32 4.3 11 6 C10.29875 5.54625 9.5975 5.0925 8.875 4.625 C5.97015409 2.98313057 3.1860652 1.96322901 0 1 C0 0.67 0 0.34 0 0 Z " fill="#F9FC57" transform="translate(284,119)"/>
<path d="M0 0 C0 3.15081975 -0.27898465 4.41847698 -2 7 C-4.125 7.75 -4.125 7.75 -6 8 C-6 5 -6 5 -4.6875 3.61328125 C-3.125 2.40885417 -1.5625 1.20442708 0 0 Z " fill="#FAFA5A" transform="translate(654,92)"/>
<path d="M0 0 C1.65 0.33 3.3 0.66 5 1 C2.63707344 3.52588702 1.33537489 4.88820837 -2 6 C-1.34 4.02 -0.68 2.04 0 0 Z " fill="#FBFC3A" transform="translate(256,120)"/>
<path d="M0 0 C0.66 0 1.32 0 2 0 C0.60667426 3.36720387 -0.9789286 4.9859524 -4 7 C-4 5.35 -4 3.7 -4 2 C-2.68 2 -1.36 2 0 2 C0 1.34 0 0.68 0 0 Z " fill="#F9FD4F" transform="translate(693,115)"/>
<path d="M0 0 C0.66 0 1.32 0 2 0 C2 0.66 2 1.32 2 2 C3.32 2.66 4.64 3.32 6 4 C5 6 5 6 3 7 C2.67 6.01 2.34 5.02 2 4 C1.34 3.67 0.68 3.34 0 3 C0 2.01 0 1.02 0 0 Z " fill="#FDFC67" transform="translate(335,93)"/>
<path d="M0 0 C1.32 0.33 2.64 0.66 4 1 C3.01 2.32 2.02 3.64 1 5 C-0.32 4.67 -1.64 4.34 -3 4 C-2.01 2.68 -1.02 1.36 0 0 Z " fill="#FCFC40" transform="translate(254,88)"/>
</svg>
