<?xml version="1.0" encoding="utf-8"?>
<svg height="1626" version="1.1" width="1626" xmlns="http://www.w3.org/2000/svg">
<path d="M0 0 C3.0559117 3.64913561 5.5412238 7.40097612 7.94921875 11.50390625 C8.31889267 12.130728 8.68856659 12.75754974 9.06944275 13.40336609 C9.86416925 14.75148328 10.65723643 16.10057978 11.4487915 17.45056152 C13.57309955 21.07240469 15.71093442 24.68625244 17.84765625 28.30078125 C18.28176819 29.03573822 18.71588013 29.77069519 19.16314697 30.52792358 C23.26589503 37.4665891 27.432956 44.36501202 31.625 51.25 C31.97156647 51.81965485 32.31813293 52.38930969 32.67520142 52.97622681 C35.11449297 56.98555903 37.55678459 60.99305802 40 65 C42.79385634 69.58200296 45.58566175 74.16524516 48.375 78.75 C48.72092194 79.31809387 49.06684387 79.88618774 49.42324829 80.47149658 C53.62016269 87.36732428 57.77346063 94.28685768 61.87109375 101.2421875 C74.37519531 122.47491308 74.37519531 122.47491308 88 143 C88.51191895 143.73283203 89.02383789 144.46566406 89.55126953 145.22070312 C97.24755604 156.19871424 105.40884531 166.71078396 114 177 C114.72316406 177.87180908 114.72316406 177.87180908 115.4609375 178.76123047 C121.62255924 186.18453787 127.99219986 193.38131865 134.56005859 200.44677734 C136.0839031 202.09050382 137.59931958 203.74169984 139.11328125 205.39453125 C146.01306035 212.92058975 152.90694802 220.27217454 160.65625 226.93359375 C162.97741834 228.98009051 165.2327172 231.08808127 167.48486328 233.20996094 C174.07720117 239.39996799 180.93484515 245.0771884 188.12255859 250.55957031 C190.06928309 252.05315608 191.99830738 253.56760839 193.92578125 255.0859375 C276.5540646 319.78544239 372.51634527 343.54514456 475.79189777 343.38876271 C481.87044991 343.38258773 487.94896993 343.39072049 494.0275175 343.39844786 C506.44012697 343.41380854 518.85270347 343.4159712 531.26531982 343.41069031 C548.2361199 343.40365376 565.20686625 343.41642821 582.17765641 343.43419749 C590.11934229 343.44248686 598.06102904 343.44982644 606.00271606 343.45691681 C607.194595 343.45798255 607.194595 343.45798255 608.41055231 343.45906983 C627.25872499 343.47570276 646.10689941 343.48303454 664.95507812 343.48876953 C666.18965007 343.48915039 666.18965007 343.48915039 667.44916287 343.48953895 C679.96610849 343.49338837 692.48305422 343.49674952 705 343.5 C718.34830738 343.50346638 731.69661468 343.50711258 745.04492188 343.51123047 C746.27878478 343.5116059 746.27878478 343.5116059 747.5375742 343.51198892 C766.35748169 343.51776613 785.17738278 343.52625496 803.99728394 343.54308319 C804.79058732 343.54379146 805.58389071 343.54449972 806.4012336 343.54522945 C814.32623459 343.55236586 822.251235 343.55996928 830.17623486 343.56826716 C847.11833892 343.58590391 864.06039144 343.5955528 881.00250429 343.58834486 C893.35484762 343.58321577 905.70715021 343.58850231 918.05948496 343.60420525 C924.73114341 343.61236382 931.40270011 343.61548528 938.07436371 343.60538292 C1028.7580845 343.47877071 1117.41947279 359.06999337 1237 429 C1237.75716309 429.54366211 1238.51432617 430.08732422 1239.29443359 430.64746094 C1248.93931868 437.58002416 1258.30387094 444.68892808 1267.24267578 452.51367188 C1268.55712752 453.62542267 1269.8988575 454.70506265 1271.25341797 455.76757812 C1279.40509321 462.20607671 1286.69156963 469.38670552 1294.00732422 476.74658203 C1296.1211762 478.8711568 1298.24551542 480.98482061 1300.37109375 483.09765625 C1307.71046131 490.42988712 1314.5928291 497.83174207 1321 506 C1321.92243886 507.09062334 1322.85213074 508.1752086 1323.79296875 509.25 C1393.908481 589.7741772 1427.89607786 701.30266382 1427.9777832 851.62719727 C1427.68342797 855.75417277 1427.35071551 859.87746163 1427 864 C1426.94390564 864.66292053 1426.88781128 865.32584106 1426.83001709 866.0088501 C1424.55016667 892.43912457 1419.88638207 918.48301434 1415.1633091 944.5669241 C1414.15414009 950.14118134 1413.15219188 955.71671963 1412.15136719 961.29248047 C1410.30194532 971.5917794 1408.43963267 981.88871367 1406.57239151 992.18479538 C1406.06306003 994.99690799 1405.55554628 997.80934358 1405.0484314 1000.62185669 C1404.2442847 1005.078863 1403.43367318 1009.5346483 1402.61819839 1013.98959541 C1402.3151174 1015.65070005 1402.01413797 1017.31218964 1401.71535873 1018.97407341 C1401.30304877 1021.26505941 1400.88309923 1023.55451684 1400.46118164 1025.84375 C1400.22629532 1027.13474609 1399.991409 1028.42574219 1399.74940491 1029.75585938 C1399.11365006 1032.50801393 1398.41563895 1034.58097396 1397 1037 C1379.44531251 1005.65234377 1379.44531251 1005.65234377 1377.71899414 1002.56958008 C1376.56459387 1000.50818616 1375.41013337 998.44682596 1374.25561523 996.38549805 C1371.32395846 991.15100955 1368.39335904 985.91593427 1365.46484375 980.6796875 C1359.30341045 969.6654439 1353.12389568 958.66197822 1346.90307617 947.68115234 C1343.43376549 941.55251141 1339.99336819 935.40838099 1336.56616211 929.25610352 C1333.72515326 924.16260506 1330.86907382 919.07774001 1328 914 C1327.5776709 913.25250488 1327.1553418 912.50500977 1326.72021484 911.73486328 C1320.57183198 900.9391727 1313.42971923 890.94747786 1306 881 C1305.54447754 880.38850098 1305.08895508 879.77700195 1304.61962891 879.14697266 C1299.21001035 871.91568506 1293.51102256 864.96054385 1287.63671875 858.10546875 C1285.27889771 855.34747097 1283.01109619 852.52553631 1280.75 849.6875 C1271.43074611 838.28086472 1260.94754896 827.86288671 1250.5625 817.4375 C1249.73451904 816.60484619 1248.90653809 815.77219238 1248.0534668 814.91430664 C1243.1961727 810.06972926 1238.21368981 805.45674134 1233 801 C1231.91694995 800.05064018 1230.83487014 799.100172 1229.75390625 798.1484375 C1189.33225737 762.88873819 1142.48946732 735.06626705 1092 717 C1091.00436035 716.64067383 1090.0087207 716.28134766 1088.98291016 715.91113281 C1077.16026769 711.68389041 1065.2366067 708.1358925 1053.0625 705.0625 C1051.89541504 704.76770752 1050.72833008 704.47291504 1049.52587891 704.16918945 C1043.34219191 702.65982439 1037.34436942 701.53150073 1031 701 C1031.54527344 701.59425781 1032.09054687 702.18851563 1032.65234375 702.80078125 C1037.46253651 708.08788201 1042.07796777 713.48103892 1046.56640625 719.04296875 C1048.27659183 721.12099521 1049.99976131 723.15777057 1051.77734375 725.17578125 C1107.19100072 788.15673902 1136.1963831 872.1111868 1136.25 955.5 C1136.25101212 956.92229416 1136.25101212 956.92229416 1136.25204468 958.37332153 C1136.23362896 974.75246631 1135.41296624 990.77545039 1133 1007 C1132.82839355 1008.15951172 1132.65678711 1009.31902344 1132.47998047 1010.51367188 C1122.74249784 1074.03791067 1095.98519075 1130.22527789 1057.16503906 1180.90966797 C1052.71271906 1186.72768556 1048.32771134 1192.5888131 1044 1198.5 C1038.4135524 1206.12752689 1032.70723354 1213.65644967 1026.9609375 1221.1640625 C1022.57935674 1226.89902727 1018.26457042 1232.67759563 1014 1238.5 C1008.4133758 1246.12740017 1002.70723662 1253.65644565 996.9609375 1261.1640625 C992.57935674 1266.89902727 988.26457042 1272.67759563 984 1278.5 C978.4133758 1286.12740017 972.70723662 1293.65644565 966.9609375 1301.1640625 C962.57935674 1306.89902727 958.26457042 1312.67759563 954 1318.5 C948.4133758 1326.12740017 942.70723662 1333.65644565 936.9609375 1341.1640625 C932.57935674 1346.89902727 928.26457042 1352.67759563 924 1358.5 C918.4133758 1366.12740017 912.70723662 1373.65644565 906.9609375 1381.1640625 C902.57935674 1386.89902727 898.26457042 1392.67759563 894 1398.5 C888.4133758 1406.12740017 882.70723662 1413.65644565 876.9609375 1421.1640625 C872.57935674 1426.89902727 868.26457042 1432.67759563 864 1438.5 C858.4133758 1446.12740017 852.70723662 1453.65644565 846.9609375 1461.1640625 C842.57935674 1466.89902727 838.26457042 1472.67759563 834 1478.5 C828.4133758 1486.12740017 822.70723662 1493.65644565 816.9609375 1501.1640625 C812.57935674 1506.89902727 808.26457042 1512.67759563 804 1518.5 C798.4133758 1526.12740017 792.70723662 1533.65644565 786.9609375 1541.1640625 C782.57935674 1546.89902727 778.26457042 1552.67759563 774 1558.5 C768.42408498 1566.11277895 762.73702493 1573.63392613 756.98950195 1581.11791992 C753.59177602 1585.55357507 750.24495905 1590.01592464 746.98046875 1594.55078125 C746.34173828 1595.43507813 745.70300781 1596.319375 745.04492188 1597.23046875 C743.83068834 1598.91839382 742.62458338 1600.61220397 741.42773438 1602.3125 C740.88826172 1603.06144531 740.34878906 1603.81039063 739.79296875 1604.58203125 C739.3239917 1605.24436768 738.85501465 1605.9067041 738.37182617 1606.58911133 C737.91912354 1607.05470459 737.4664209 1607.52029785 737 1608 C734 1608 734 1608 732.0546875 1606.19921875 C731.33539062 1605.37035156 730.61609375 1604.54148437 729.875 1603.6875 C729.07707031 1602.77226563 728.27914062 1601.85703125 727.45703125 1600.9140625 C724.36165283 1597.24291417 721.33588104 1593.51880247 718.31640625 1589.78515625 C715.15907906 1585.98890956 711.81199409 1582.38216642 708.46875 1578.75 C705.26803283 1575.18464416 702.27993135 1571.46738854 699.2734375 1567.73828125 C696.9730353 1564.9675219 694.57478528 1562.326622 692.125 1559.6875 C686.36675125 1553.40577409 681.13027659 1546.79740449 676 1540 C675.49065918 1539.32582031 674.98131836 1538.65164063 674.45654297 1537.95703125 C639.55660961 1491.43811792 617.56615827 1437.8370519 607.75 1380.625 C607.59877686 1379.74811523 607.44755371 1378.87123047 607.29174805 1377.96777344 C604.39274465 1360.00737518 603.62457614 1342.16985299 603.6875 1324 C603.68965515 1322.87726685 603.6918103 1321.75453369 603.69403076 1320.59777832 C603.74644588 1303.55771427 604.20173354 1286.84491038 607 1270 C607.19867676 1268.78119141 607.39735352 1267.56238281 607.60205078 1266.30664062 C612.2106881 1238.84123351 619.91639949 1212.6571029 629.98193359 1186.71533203 C631.06278774 1183.83253591 632.04296183 1180.92598684 633 1178 C632.57589844 1177.5875 632.15179687 1177.175 631.71484375 1176.75 C627.24324573 1172.34719579 623.07933524 1167.76565062 619 1163 C618.09260636 1161.94517618 617.18504092 1160.89050014 616.27734375 1159.8359375 C613.68926733 1156.82649692 611.11042604 1153.80926335 608.53320312 1150.79052734 C607.09566723 1149.11172348 605.65053679 1147.43981975 604.203125 1145.76953125 C597.74453257 1138.27965682 591.75117744 1130.5043761 585.89038086 1122.5402832 C584.39879402 1120.53589717 582.89333045 1118.54505072 581.37719727 1116.55932617 C574.35531521 1107.33415621 567.73508476 1097.9022795 561.33520508 1088.23608398 C559.8083607 1085.93125157 558.27288356 1083.63235116 556.73632812 1081.33398438 C550.54739141 1072.04416497 544.64419853 1062.62984155 539 1053 C538.2100061 1051.66279907 538.2100061 1051.66279907 537.40405273 1050.29858398 C493.60916016 975.81177152 464.53835196 894.22116164 440 692 C439.25355225 692.01571045 438.50710449 692.0314209 437.73803711 692.04760742 C368.72681115 693.29128931 298.59114224 677.39402635 236.19970703 648.02783203 C234.07861016 647.03673127 231.94660215 646.07506736 229.80859375 645.12109375 C191.52357071 627.86338336 156.20347575 602.94181935 125 575 C124.47164551 574.52949219 123.94329102 574.05898438 123.39892578 573.57421875 C116.07990861 567.03156569 109.07991446 560.17683811 102.125 553.25 C101.32803711 552.45770996 100.53107422 551.66541992 99.70996094 550.84912109 C94.93441943 546.06055356 90.39280172 541.14042412 86 536 C85.154375 535.03578125 84.30875 534.0715625 83.4375 533.078125 C64.11546327 510.65960803 47.18221853 485.96707774 33 460 C32.289646 458.70473389 32.289646 458.70473389 31.56494141 457.38330078 C-1.53939756 396.59209287 -19.55282135 328.82935007 -25 260 C-25.0942627 258.84072998 -25.18852539 257.68145996 -25.28564453 256.48706055 C-26.18154912 244.10546678 -26.24337616 231.72231412 -26.25 219.3125 C-26.25067474 218.16860809 -26.25134949 217.02471619 -26.25204468 215.84616089 C-26.24143548 204.4470288 -26.18534933 193.05356641 -25.50390625 181.671875 C-25.44335304 180.65978973 -25.44335304 180.65978973 -25.38157654 179.6272583 C-24.45112011 166.0565005 -22.7727851 152.53153004 -20.93359375 139.05859375 C-20.83109566 138.30257874 -20.72859756 137.54656372 -20.62299347 136.76763916 C-17.29116542 112.26349666 -13.53202747 87.81929395 -9.83441162 63.36834717 C-9.04510847 58.14377853 -8.25885636 52.91875258 -7.47264481 47.69371796 C-6.71186928 42.63906823 -5.94980283 37.58461387 -5.18727875 32.53022766 C-4.82499123 30.12848453 -4.4629732 27.72670073 -4.10123444 25.32487488 C-3.60029899 22.00090063 -3.0977589 18.6771731 -2.59472656 15.35351562 C-2.44721451 14.37298721 -2.29970245 13.3924588 -2.14772034 12.38221741 C-2.01053085 11.47801559 -1.87334137 10.57381378 -1.73199463 9.64221191 C-1.61404667 8.86157631 -1.49609871 8.0809407 -1.37457657 7.27664948 C-0.97334475 4.83799129 -0.4975842 2.42067468 0 0 Z M33 166 C29.86762717 175.39711848 30.8342133 186.72050023 30.796875 196.55078125 C30.78986069 197.79601562 30.78284637 199.04125 30.77561951 200.32421875 C30.75821847 204.32032929 30.75118527 208.31635964 30.75 212.3125 C30.74955814 212.99402004 30.74911629 213.67554008 30.74866104 214.37771225 C30.74151585 235.40144082 31.1276059 256.13661063 34 277 C34.25740967 278.9483374 34.25740967 278.9483374 34.52001953 280.93603516 C40.63806286 326.71352496 53.12534388 371.24145547 73 413 C73.38768555 413.81919922 73.77537109 414.63839844 74.17480469 415.48242188 C90.49242278 449.72135517 112.50784842 480.0575067 138 508 C138.908085 509.01254315 139.81561172 510.02558718 140.72265625 511.0390625 C145.30672422 516.13563496 149.92031001 521.02094172 155.18359375 525.43359375 C156.99932645 526.99941916 158.64942704 528.6490212 160.3125 530.375 C164.86951072 534.99345356 169.94223639 538.94872502 175 543 C176.11422037 543.91552492 177.22746831 544.83223434 178.33984375 545.75 C238.13471407 594.7895646 312.75730533 623.17348057 389 633 C389.64208766 633.0832747 390.28417532 633.1665494 390.94572019 633.25234758 C404.21552579 634.92897499 417.30693034 635.29004264 430.67042542 635.27174377 C432.90236029 635.27604021 435.13429363 635.28120671 437.36622471 635.28715843 C443.44872302 635.30091552 449.53117106 635.30251719 455.61368263 635.30201519 C461.51661903 635.3034924 467.41953357 635.31434027 473.32245953 635.32494953 C485.39198273 635.34634189 497.46149904 635.35875633 509.53103828 635.36609077 C521.49189745 635.37341759 533.4527391 635.38530367 545.41358757 635.40299797 C546.16013358 635.40410171 546.90667958 635.40520546 547.6758482 635.40634265 C551.46855597 635.41197994 555.26126359 635.41770762 559.05397116 635.42347669 C585.88940793 635.46419919 612.72484857 635.49652597 639.56030273 635.52319336 C641.18074792 635.52480659 642.80119311 635.52642003 644.4216383 635.52803367 C645.62590067 635.52923239 645.62590067 635.52923239 646.85449158 635.53045533 C650.91532349 635.5344983 654.9761554 635.53854667 659.0369873 635.54260254 C660.24456387 635.54380733 660.24456387 635.54380733 661.47653593 635.54503647 C680.14573663 635.56370798 698.81493404 635.58498666 717.48413086 635.60717773 C718.28328007 635.60812567 719.08242928 635.60907361 719.90579513 635.61005028 C738.19061902 635.63176119 756.47544098 635.65463978 774.76026058 635.67970943 C775.53124881 635.68076529 776.30223704 635.68182114 777.09658855 635.68290898 C784.0368053 635.69242279 790.97702199 635.70197958 797.91723835 635.71177601 C815.1550937 635.73610318 832.39294463 635.75764682 849.63081137 635.77204772 C861.65451247 635.78210081 873.67820639 635.79529414 885.70190055 635.81169481 C892.1972245 635.82044119 898.69254229 635.82752831 905.18787193 635.83033562 C950.24970369 635.85159208 950.24970369 635.85159208 970.3533783 636.432724 C972.2822148 636.48743751 972.2822148 636.48743751 974.2500177 636.54325634 C1065.23193661 639.58337357 1156.83600273 671.94311167 1230 726 C1230.66112793 726.48388184 1231.32225586 726.96776367 1232.00341797 727.46630859 C1245.09246842 737.05652481 1257.89081962 747.06260075 1269.85546875 758.03515625 C1271.81378128 759.82938431 1273.80226137 761.57695236 1275.8125 763.3125 C1288.19504524 774.12857867 1300.54902551 785.3690251 1311.203125 797.921875 C1313.06977008 800.08069061 1314.99860383 802.17518651 1316.94042969 804.26635742 C1321.67038447 809.36417969 1326.21073213 814.55814369 1330.5703125 819.98046875 C1332.36164261 822.2066716 1334.16738303 824.41488116 1335.9921875 826.61328125 C1343.54657496 835.74833905 1350.6061265 845.15817473 1357.45996094 854.828125 C1358.98072126 856.97281172 1360.50854838 859.11226561 1362.0390625 861.25 C1364.36363353 864.49698187 1366.68339036 867.74733364 1369 871 C1376.01734848 860.47397728 1372.24400834 837.40886423 1372.25 825.1875 C1372.25067474 823.94734131 1372.25134949 822.70718262 1372.25204468 821.42944336 C1372.23455869 801.13000953 1371.57654569 781.13978931 1369 761 C1368.87271515 760.00238647 1368.87271515 760.00238647 1368.74285889 758.98461914 C1359.26331285 685.51648666 1333.49342812 613.30233005 1287 555 C1286.28457031 554.08347656 1285.56914063 553.16695312 1284.83203125 552.22265625 C1282.91864355 549.78851149 1280.96594967 547.39184206 1279 545 C1278.26136719 544.07574219 1277.52273438 543.15148437 1276.76171875 542.19921875 C1269.68245259 533.52466341 1261.82975971 525.61341956 1253.9375 517.6875 C1253.3831427 517.12796631 1252.8287854 516.56843262 1252.25762939 515.99194336 C1245.16011643 508.84229866 1237.89152434 502.273709 1230 496 C1228.89809978 495.06530542 1227.80177485 494.12393532 1226.71484375 493.171875 C1206.52783779 475.56857866 1183.60913596 461.52186371 1160 449 C1159.1961084 448.57009766 1158.3922168 448.14019531 1157.56396484 447.69726562 C1097.1267078 415.6232613 1028.19849893 400.84024983 960.08013916 400.85523987 C957.77242241 400.85210093 955.46470623 400.84852493 953.15699077 400.84455246 C946.84672383 400.83490881 940.53646594 400.8313129 934.22619271 400.82870948 C928.10920201 400.82520102 921.99221916 400.81703508 915.87523314 400.8089225 C903.36495733 400.79245112 890.85468096 400.78024251 878.3443985 400.77020454 C860.45155343 400.75574402 842.55872403 400.73298012 824.66589018 400.70853943 C817.47356341 400.69875127 810.28123628 400.68922933 803.08890915 400.67970943 C802.28991549 400.67865067 801.49092183 400.6775919 800.66771624 400.67650105 C781.66731449 400.6513736 762.66690986 400.62886841 743.66650391 400.60717773 C742.83567094 400.6062273 742.00483798 400.60527686 741.14882826 400.60429762 C721.77852129 400.58216118 702.40821346 400.56128491 683.03790283 400.54260254 C681.78931599 400.54139691 681.78931599 400.54139691 680.51550518 400.54016693 C676.31827107 400.53611619 672.12103694 400.5320746 667.92380282 400.52803367 C667.09427857 400.52723468 666.26475431 400.52643569 665.41009296 400.52561248 C663.73579276 400.52400018 662.06149256 400.52238936 660.38719236 400.52078002 C632.6649086 400.49409187 604.94263912 400.46069381 577.22037228 400.42000187 C573.29748615 400.41425297 569.37459991 400.40859422 565.45171356 400.40299797 C564.29381932 400.40134526 564.29381932 400.40134526 563.11253328 400.39965917 C550.74168302 400.38222475 538.37083702 400.37200905 525.99997703 400.36474552 C513.54350001 400.35731707 501.08704713 400.34284366 488.63058636 400.32131977 C481.89514175 400.30988624 475.15973782 400.30179019 468.42428017 400.30232811 C462.23931846 400.30276062 456.05443769 400.29388003 449.86949679 400.27807831 C447.65077522 400.27397578 445.4320444 400.27308994 443.213321 400.27604241 C421.73112889 400.30108518 400.21743671 399.27813537 379 395.75 C378.34398804 395.64362213 377.68797607 395.53724426 377.01208496 395.42764282 C290.49846868 381.37607641 208.45866659 343.80020145 141.9921875 286.5546875 C139.12081059 284.10314638 136.19721643 281.73440595 133.25 279.375 C128.9182404 275.85426651 124.98656261 272.09327201 121.09375 268.09765625 C119.2302578 266.23068738 117.32553147 264.51419398 115.3125 262.8125 C106.89669772 255.57964181 98.93000884 247.51130137 91.76171875 239.04296875 C89.90936158 236.89489159 87.99178716 234.81411464 86.06176758 232.73583984 C81.33082626 227.63751702 76.78991227 222.44265778 72.4296875 217.01953125 C70.63835739 214.7933284 68.83261697 212.58511884 67.0078125 210.38671875 C58.32377091 199.88563944 50.3381646 188.96806629 42.47607422 177.84375 C41.51390383 176.48255349 40.5508189 175.1220028 39.58666992 173.76220703 C38.71483416 172.53128641 37.84634116 171.29798931 36.98168945 170.06201172 C36.01232614 168.69033699 35.00984826 167.34214876 34 166 C33.67 166 33.34 166 33 166 Z M498 692 C497.98889003 696.80078782 497.98086206 701.60156795 497.97553825 706.40236568 C497.97331591 708.03135846 497.9702901 709.66035036 497.96640587 711.28934002 C497.94015032 722.5936804 498.09043176 733.7980489 499.125 745.0625 C499.18868774 745.79473785 499.25237549 746.52697571 499.31799316 747.28140259 C505.90067626 822.54678532 525.11127449 896.48205082 557 965 C557.48436523 966.04704102 557.96873047 967.09408203 558.46777344 968.17285156 C580.22951588 1015.02528702 607.64768324 1058.74620254 640 1099 C640.74507812 1099.928125 641.49015625 1100.85625 642.2578125 1101.8125 C644.48519584 1104.55880778 646.74028493 1107.28024522 649 1110 C649.73814941 1110.90758057 649.73814941 1110.90758057 650.49121094 1111.83349609 C652.0870722 1113.79436298 653.6983892 1115.74164198 655.3125 1117.6875 C656.06841431 1118.62529297 656.06841431 1118.62529297 656.83959961 1119.58203125 C658.43870797 1121.5427668 658.43870797 1121.5427668 661 1124 C662.32 1124 663.64 1124 665 1124 C666.62038254 1122.13153564 667.91018826 1120.37168323 669.25 1118.3125 C670.131794 1117.01835751 671.01747206 1115.72685613 671.90625 1114.4375 C672.39480469 1113.72722656 672.88335938 1113.01695312 673.38671875 1112.28515625 C676.38629934 1108.03635566 679.57928725 1103.93419934 682.75 1099.8125 C687.90239483 1093.09059344 692.99698776 1086.3338377 698 1079.5 C702.94181129 1072.75031236 707.97377678 1066.07707221 713.0625 1059.4375 C717.97421744 1053.02602151 722.80194203 1046.5696777 727.5 1040 C732.84782509 1032.52169993 738.38220886 1025.2006512 743.97509766 1017.90429688 C749.09968243 1011.20965279 754.11857622 1004.4438007 759.10180664 997.64355469 C763.96663858 991.015672 768.94678656 984.48534536 774 978 C770.71140391 971.91801908 767.18599261 966.05741831 763.4375 960.25 C726.25090434 901.8832129 699.91139325 836.78481423 686 769 C685.7529834 767.8042334 685.5059668 766.6084668 685.25146484 765.37646484 C681.30794628 745.92859972 678.68325084 726.4286744 676.56030273 706.70141602 C676.46207214 705.79694229 676.36384155 704.89246857 676.26263428 703.96058655 C676.07815929 702.24974362 675.89792657 700.53843654 675.72247314 698.8266449 C675.63786076 695.10173821 675.63786076 695.10173821 674 692 C671.73442613 691.90292389 669.46575698 691.87813379 667.19810486 691.87974548 C666.47854522 691.87889106 665.75898558 691.87803663 665.0176211 691.87715632 C662.5884642 691.8754994 660.15937523 691.88102632 657.73022461 691.88647461 C655.99610903 691.88675646 654.26199332 691.88659879 652.52787781 691.8860321 C647.80493679 691.88574405 643.08202094 691.89164201 638.3590858 691.89860606 C633.4289721 691.90483834 628.49885788 691.9054433 623.56874084 691.90663147 C614.22603638 691.90974516 604.88334356 691.91795905 595.54064423 691.92798096 C584.90720945 691.93914093 574.27377413 691.94465225 563.64033496 691.94967639 C541.7602168 691.96014164 519.88010913 691.97774181 498 692 Z M1006 762 C1004.65128674 763.46174326 1004.65128674 763.46174326 1003.3046875 765.41796875 C1002.76199219 766.16691406 1002.21929688 766.91585937 1001.66015625 767.6875 C1001.07105469 768.5125 1000.48195313 769.3375 999.875 770.1875 C998.60317002 771.94257228 997.3296709 773.69643596 996.0546875 775.44921875 C995.05646973 776.82279541 995.05646973 776.82279541 994.03808594 778.22412109 C990.75408886 782.69693455 987.37732764 787.09748549 984 791.5 C978.93269613 798.11885422 973.92563418 804.77504739 969 811.5 C963.4133758 819.12740017 957.70723662 826.65644565 951.9609375 834.1640625 C947.57935674 839.89902727 943.26457042 845.67759563 939 851.5 C933.4133758 859.12740017 927.70723662 866.65644565 921.9609375 874.1640625 C917.57935674 879.89902727 913.26457042 885.67759563 909 891.5 C903.4133758 899.12740017 897.70723662 906.65644565 891.9609375 914.1640625 C887.57935674 919.89902727 883.26457042 925.67759563 879 931.5 C873.4133758 939.12740017 867.70723662 946.65644565 861.9609375 954.1640625 C857.57935674 959.89902727 853.26457042 965.67759563 849 971.5 C843.4133758 979.12740017 837.70723662 986.65644565 831.9609375 994.1640625 C827.57935674 999.89902727 823.26457042 1005.67759563 819 1011.5 C813.4133758 1019.12740017 807.70723662 1026.65644565 801.9609375 1034.1640625 C797.57935674 1039.89902727 793.26457042 1045.67759563 789 1051.5 C783.4133758 1059.12740017 777.70723662 1066.65644565 771.9609375 1074.1640625 C767.57935674 1079.89902727 763.26457042 1085.67759563 759 1091.5 C754.07435006 1098.22497411 749.0663611 1104.88040804 744 1111.5 C737.65170693 1119.79779296 731.40219159 1128.16101579 725.234375 1136.59375 C723.22532486 1139.34047971 721.19806934 1142.07060305 719.140625 1144.78125 C686.24130066 1188.33694103 665.42672404 1241.4995534 661 1296 C660.83564453 1297.86398437 660.83564453 1297.86398437 660.66796875 1299.765625 C654.96206639 1374.93137879 677.44856468 1454.58507022 726.94287109 1512.26416016 C728.62040428 1514.18356826 730.30477215 1516.09621597 732 1518 C736.38711608 1513.89776159 739.80872788 1509.36523786 743.3125 1504.5 C748.45748519 1497.43319536 753.68251408 1490.4379242 759 1483.5 C764.0669894 1476.88089959 769.07436053 1470.22495982 774 1463.5 C779.5866242 1455.87259983 785.29276338 1448.34355435 791.0390625 1440.8359375 C795.42064326 1435.10097273 799.73542958 1429.32240437 804 1423.5 C809.5866242 1415.87259983 815.29276338 1408.34355435 821.0390625 1400.8359375 C825.42064326 1395.10097273 829.73542958 1389.32240437 834 1383.5 C839.5866242 1375.87259983 845.29276338 1368.34355435 851.0390625 1360.8359375 C855.42064326 1355.10097273 859.73542958 1349.32240437 864 1343.5 C869.5866242 1335.87259983 875.29276338 1328.34355435 881.0390625 1320.8359375 C885.42064326 1315.10097273 889.73542958 1309.32240437 894 1303.5 C899.5866242 1295.87259983 905.29276338 1288.34355435 911.0390625 1280.8359375 C915.42064326 1275.10097273 919.73542958 1269.32240437 924 1263.5 C929.5866242 1255.87259983 935.29276338 1248.34355435 941.0390625 1240.8359375 C945.42064326 1235.10097273 949.73542958 1229.32240437 954 1223.5 C959.5866242 1215.87259983 965.29276338 1208.34355435 971.0390625 1200.8359375 C975.42064326 1195.10097273 979.73542958 1189.32240437 984 1183.5 C988.92565144 1176.77502383 993.93372795 1170.11966172 999 1163.5 C1005.92170111 1154.45040548 1012.73673407 1145.32903799 1019.44970703 1136.12353516 C1020.88677932 1134.15508558 1022.33158126 1132.19253758 1023.77734375 1130.23046875 C1068.80377753 1068.71931943 1087.94243423 988.41641481 1076.50488281 913.11328125 C1073.79799141 896.42165691 1070.10457949 880.12303947 1065 864 C1064.74524902 863.18789063 1064.49049805 862.37578125 1064.22802734 861.5390625 C1052.8056091 825.67481762 1033.60918148 789.79895207 1008 762 C1007.34 762 1006.68 762 1006 762 Z " fill="currentColor" transform="translate(111,15)"/>
</svg>