<?xml version="1.0" encoding="utf-8"?>
<!-- Generator: Adobe Illustrator 27.7.0, SVG Export Plug-In . SVG Version: 6.00 Build 0)  -->
<svg version="1.1" id="Vrstva_1" xmlns="http://www.w3.org/2000/svg" xmlns:xlink="http://www.w3.org/1999/xlink" x="0px" y="0px"
	 viewBox="0 0 500 596" style="enable-background:new 0 0 500 596;" xml:space="preserve">
<style type="text/css">
	.st0{fill-rule:evenodd;clip-rule:evenodd;fill:#009EE3;}
	.st1{fill:none;stroke:#990567;stroke-width:3.000000e-05;stroke-miterlimit:22.9256;}
	.st2{fill-rule:evenodd;clip-rule:evenodd;fill:#FFFFFF;}
	.st3{fill:#1F1E1D;}
	.st4{fill-rule:evenodd;clip-rule:evenodd;fill:#F3E21C;}
</style>
<g>
	<path class="st0" d="M255,591.4L255,591.4c135,0,245.4-110.4,245.4-245.4V4.6H9.6V346C9.6,480.9,120,591.4,255,591.4z"/>
	<path class="st1" d="M250,591.4L250,591.4c135,0,245.4-110.4,245.4-245.4V4.6H4.6V346C4.6,480.9,115,591.4,250,591.4z"/>
	<path class="st2" d="M324.7,187.5l9.9-18.7L88,38.5c-5.1-2.7-11.7-0.8-14.3,4.4c-2.6,5.2-0.8,11.5,4.4,14.3L324.7,187.5z"/>
	<path class="st3" d="M87.1,39.6L87.1,39.6 M87.1,39.6L87.1,39.6 M335.8,169.5l-9.9,18.7c-0.4,0.7-1.2,0.9-1.9,0.6L77.4,58.4
		c-2.9-1.5-4.9-4.1-5.8-7c-0.9-2.9-0.7-6.2,0.8-9.1l0,0l0,0l0.1-0.1l0-0.1c1.5-2.8,4-4.8,6.9-5.6c2.8-0.9,6-0.7,8.9,0.7l0,0l0,0
		l0.1,0.1l0.1,0l246.6,130.3C335.9,168,336.2,168.8,335.8,169.5z M324.1,185.6l8.6-16.2L87.3,39.7l-0.1,0l-0.1-0.1
		c-2.2-1.1-4.6-1.2-6.8-0.6c-2.2,0.7-4.1,2.1-5.2,4.3l0,0.1l-0.1,0.1c-1.1,2.3-1.3,4.8-0.6,7.1c0.7,2.2,2.2,4.2,4.4,5.3L324.1,185.6
		z"/>
	<path class="st2" d="M420.4,47.3c-21.3-2.4-37.5,4.9-61.4,17.3L119.2,195.7c0.7,1.7,1.5,3.4,2.3,5.1l2.9,5.3l2.9,5.3
		c1,1.6,2,3.2,3,4.8L372.1,88.9C395.6,75.8,410.6,66.4,420.4,47.3"/>
	<path class="st3" d="M390.2,49c9.9-3.1,19.4-4.4,30.3-3.1v0c0.2,0,0.3,0.1,0.5,0.1c0.7,0.4,1,1.2,0.6,1.9c-5,9.8-11.3,17-19.4,23.5
		c-8,6.4-17.7,12.1-29.5,18.7l-0.1,0L130.9,217.5c-0.6,0.3-1.4,0.2-1.8-0.5c-0.5-0.8-1-1.6-1.5-2.4c-0.5-0.8-1-1.6-1.5-2.4l-0.1-0.1
		l-2.9-5.3l-2.9-5.3l0,0l0-0.1c-0.5-0.9-0.9-1.8-1.2-2.6c-0.3-0.8-0.7-1.6-1.1-2.6c-0.3-0.7-0.1-1.5,0.6-1.8L358.2,63.3l0.1-0.1
		C370.3,57.1,380.4,52.1,390.2,49 M418.2,48.5c-9.6-0.8-18.2,0.4-27.1,3.2c-9.6,3-19.6,7.9-31.5,14.1l0,0L121,196.3l0.6,1.4
		c0.4,0.9,0.8,1.7,1.1,2.5l2.9,5.3l2.9,5.3l0,0c0.5,0.8,0.9,1.5,1.4,2.3l0.8,1.3L371.4,87.7l0,0c11.7-6.5,21.2-12.1,29.1-18.4
		C407.7,63.4,413.5,56.9,418.2,48.5z"/>
	<path class="st3" d="M383.1,72.5c0.7-0.4,1.5-0.1,1.9,0.6c0.4,0.7,0.1,1.5-0.6,1.9L139.8,204c-0.7,0.4-1.5,0.1-1.9-0.6
		c-0.4-0.7-0.1-1.5,0.6-1.9L383.1,72.5z"/>
	<path class="st4" d="M121.6,220.1L121.6,220.1c-4.8,5-11.8,10.2-20.1,14.7c-18.7,10.1-36.3,12.1-40,5.1c-3.8-7,8.1-20.7,26.4-30.5
		c8.2-4.4,16.3-7.3,23.1-8.5l0.3,0L121.6,220.1z"/>
	<path class="st3" d="M111.8,226.6c3.1-2.2,5.8-4.5,8-6.8l-9.4-17.4c-3.2,0.6-6.6,1.6-10.3,3c-3.8,1.4-7.7,3.2-11.7,5.3
		c-9,4.8-16.4,10.6-21.1,16c-4.4,5.1-6.3,9.6-4.8,12.6l0,0c1.6,2.9,6.4,3.9,12.9,3.1c7-0.8,15.8-3.8,24.9-8.7l0.4-0.2
		C104.9,231.4,108.6,229,111.8,226.6 M122.6,221.1L122.6,221.1L122.6,221.1c-2.5,2.6-5.6,5.3-9.1,7.8c-3.4,2.5-7.2,4.9-11.3,7.1
		l-0.4,0.2c-9.4,5-18.6,8.1-25.9,9c-7.7,0.9-13.5-0.5-15.7-4.6l-0.1-0.1c-2.1-4.1,0-9.8,5.1-15.7c4.9-5.6,12.6-11.6,21.9-16.6
		c4.1-2.2,8.2-4,12-5.5c4-1.5,7.9-2.6,11.5-3.2l0,0l0,0l0.3,0c0.6-0.1,1.2,0.2,1.5,0.8l10.3,19.2C123.1,220,123,220.7,122.6,221.1
		L122.6,221.1z"/>
	<path class="st2" d="M67.1,236.9c1.2,2.2,2.1,4.6,2.7,6.9c-0.6,3.5-2.8,6.7-6.2,8.5c-5.8,3.1-13.1,0.9-16.3-4.9s-0.9-13.1,4.9-16.2
		c3.4-1.8,7.3-1.8,10.5-0.4C64.5,232.6,65.9,234.7,67.1,236.9"/>
	<path class="st3" d="M67.4,240.8c-0.4-1.1-0.9-2.2-1.5-3.2c-0.6-1.1-1.2-2.1-1.9-3.1c-0.6-0.9-1.3-1.7-2-2.5
		c-1.4-0.6-2.9-0.8-4.4-0.8c-1.6,0.1-3.1,0.5-4.6,1.3c-2.6,1.4-4.4,3.7-5.1,6.3c-0.8,2.6-0.6,5.4,0.8,8c0,0.1,0.1,0.1,0.1,0.2
		c1.4,2.5,3.7,4.3,6.2,5.1c2.6,0.8,5.4,0.6,8-0.8c0.1,0,0.1-0.1,0.2-0.1c1.4-0.8,2.6-1.9,3.5-3.1c0.9-1.2,1.5-2.6,1.8-4.1
		C68.1,242.8,67.8,241.8,67.4,240.8 M68.3,236.3c0.6,1.1,1.2,2.3,1.6,3.5c0.5,1.2,0.9,2.5,1.2,3.7c0.1,0.2,0.1,0.4,0,0.6
		c-0.3,2-1.1,3.9-2.3,5.6c-1.2,1.6-2.7,3-4.5,4l0,0c-3.2,1.7-6.9,2-10.2,1c-3.3-1-6.2-3.2-7.9-6.5l0,0c-1.7-3.2-2-6.9-1-10.2
		c1-3.3,3.2-6.2,6.5-7.9c1.9-1,3.8-1.5,5.8-1.6c2-0.1,4.1,0.3,5.9,1.1c0.2,0.1,0.4,0.3,0.6,0.4c0.8,0.9,1.6,1.9,2.3,3
		C67,234,67.7,235.1,68.3,236.3z"/>
	<path class="st3" d="M121.2,219.6c0.7,0.3,1.1,1.1,0.8,1.8c-0.3,0.7-1.1,1.1-1.8,0.8c-1.8-0.7-3.6-1.5-5.4-2.4
		c-1.7-0.9-3.5-1.9-5.2-3c-2.5-1.6-4.8-3.4-6.9-5.2c-2.2-1.9-4.1-4-5.8-6c-0.5-0.6-0.4-1.5,0.2-2c0.6-0.5,1.5-0.4,2,0.2
		c1.6,2,3.4,3.9,5.5,5.7c2,1.8,4.2,3.4,6.6,5c1.6,1,3.3,2,5,2.9C117.8,218.2,119.5,219,121.2,219.6"/>
	<path class="st3" d="M114.4,225.4c0.7,0.2,1.1,1,0.9,1.8c-0.2,0.7-1,1.1-1.8,0.9c-2.2-0.7-4.5-1.6-6.7-2.7c-2.2-1-4.4-2.3-6.5-3.6
		c-2.6-1.7-5-3.5-7.2-5.5l-0.1-0.1c-2.2-2-4.2-4.1-5.9-6.3c-0.5-0.6-0.4-1.5,0.2-2c0.6-0.5,1.5-0.4,2,0.2c1.6,2,3.5,4,5.6,5.9
		l0.1,0.1c2.1,1.9,4.3,3.6,6.8,5.2c2,1.3,4.1,2.5,6.2,3.5C110.2,223.9,112.3,224.8,114.4,225.4"/>
	<path class="st3" d="M106.7,230.7c0.7,0.2,1.2,1,1,1.7c-0.2,0.7-1,1.2-1.7,1c-2.5-0.7-5-1.6-7.4-2.8c-2.4-1.1-4.8-2.4-7.2-4
		c-2.5-1.6-4.9-3.4-7-5.3c-2.2-1.9-4.1-4-5.8-6.1c-0.5-0.6-0.4-1.5,0.2-2c0.6-0.5,1.5-0.4,2,0.2c1.6,2,3.5,3.9,5.5,5.8
		c2,1.8,4.2,3.5,6.6,5c2.2,1.4,4.5,2.7,6.8,3.8C102,229.2,104.4,230.1,106.7,230.7"/>
	<path class="st3" d="M96.5,236.2c0.7,0.2,1.2,1,1,1.7c-0.2,0.7-1,1.2-1.7,1c-2.5-0.7-4.9-1.6-7.4-2.8c-2.4-1.1-4.8-2.4-7.1-3.9
		c-2.2-1.4-4.3-3-6.2-4.6c-2-1.7-3.8-3.4-5.3-5.3c-0.5-0.6-0.5-1.5,0.1-2c0.6-0.5,1.5-0.5,2,0.1c1.5,1.7,3.2,3.4,5.1,5
		c1.8,1.5,3.8,3,5.9,4.4c2.2,1.4,4.5,2.7,6.8,3.7C91.8,234.6,94.2,235.5,96.5,236.2"/>
	<path class="st3" d="M85.4,240.4c0.7,0.2,1.1,1,0.9,1.8c-0.2,0.7-1,1.1-1.8,0.9c-2.1-0.7-4.3-1.6-6.3-2.6c-2-1-4.1-2.1-6.1-3.5
		c-1.7-1.1-3.2-2.2-4.7-3.4c-1.5-1.2-3-2.5-4.3-3.8c-0.6-0.5-0.6-1.4,0-2c0.5-0.6,1.4-0.6,2,0c1.3,1.3,2.6,2.5,4.1,3.6
		c1.4,1.1,2.9,2.2,4.5,3.3c1.9,1.2,3.8,2.3,5.8,3.3C81.4,238.9,83.4,239.7,85.4,240.4"/>
	<path class="st2" d="M152.6,240.3l-15.6,8.4l-41-76.4l15.6-8.4c0.2,11.9,4.5,27.2,12.7,42.4C132.4,221.5,142.8,233.5,152.6,240.3"
		/>
	<path class="st3" d="M137.5,246.8l12.4-6.7c-4.5-3.4-9.1-7.8-13.5-13.1c-4.8-5.8-9.4-12.5-13.4-20.1c-4.1-7.6-7.2-15.1-9.3-22.3
		c-2-6.6-3.1-12.8-3.5-18.5l-12.4,6.7L137.5,246.8z M153.2,241.5l-15.6,8.4c-0.7,0.4-1.5,0.1-1.9-0.6l-41-76.4
		c-0.4-0.7-0.1-1.5,0.6-1.9l15.6-8.4c0.7-0.4,1.5-0.1,1.9,0.6c0.1,0.2,0.2,0.5,0.2,0.7c0.1,5.9,1.3,12.7,3.4,19.9
		c2.1,7,5.1,14.4,9.1,21.8c4,7.4,8.4,14,13.1,19.6c4.8,5.8,9.9,10.5,14.8,13.9c0.6,0.4,0.8,1.3,0.4,1.9
		C153.6,241.3,153.4,241.4,153.2,241.5L153.2,241.5z"/>
	<rect x="4.6" y="271.6" class="st2" width="490.8" height="41.6"/>
	<path class="st3" d="M494,273H6v38.7h488V273z M4.6,270.2L4.6,270.2h490.8c0.8,0,1.4,0.6,1.4,1.4v0v41.5c0,0.8-0.6,1.4-1.4,1.4h0
		H4.6c-0.8,0-1.4-0.6-1.4-1.4v0v-41.5C3.2,270.8,3.8,270.2,4.6,270.2z"/>
	<path class="st4" d="M256.4,336.5h27v194.3c0,7.4-6.1,13.5-13.5,13.5c-7.4,0-13.5-6.1-13.5-13.5V336.5z"/>
	<path class="st3" d="M282,337.9h-24.2v192.9c0,3.3,1.3,6.3,3.5,8.5l0.1,0.1c2.2,2.2,5.2,3.6,8.5,3.6c3.3,0,6.3-1.4,8.5-3.6
		c2.2-2.2,3.6-5.2,3.6-8.5V337.9z M256.4,335.1L256.4,335.1h27c0.8,0,1.4,0.6,1.4,1.4v0v194.3c0,4.1-1.7,7.8-4.4,10.5
		c-2.7,2.7-6.4,4.4-10.5,4.4c-4.1,0-7.8-1.7-10.5-4.4l-0.1-0.1c-2.7-2.7-4.3-6.4-4.3-10.4V336.5C255,335.7,255.6,335.1,256.4,335.1z
		"/>
	<path class="st2" d="M199.8,400.6c0.2-0.2,23.3-25.4,52.8-27.7v5.9h35.5v-32.8h-31.7c-42.6-4.3-58.6-16.6-58.6-16.6
		c-5.5,8.7-8.7,21.1-8.7,34.1C189.1,378.2,193.1,392,199.8,400.6"/>
	<path class="st3" d="M200,398.4c5.1-5.1,26.3-24.9,52.6-26.9c0.8-0.1,1.4,0.5,1.5,1.3l0,0.1h0v4.5h32.7v-30h-30.3
		c-0.1,0-0.2,0-0.3,0c-36.1-3.6-53.3-13.1-57.9-16c-2.3,4-4.2,8.7-5.5,13.8c-1.5,5.7-2.2,12-2.2,18.4c0,7.2,1,14.1,2.8,20.3
		C194.9,389.5,197.1,394.5,200,398.4 M200.9,401.5L200.9,401.5L200.9,401.5c-0.1,0.1-0.1,0.1-0.2,0.2c-0.6,0.5-1.5,0.4-2-0.2
		c-3.5-4.5-6.2-10.2-8.1-16.7c-1.9-6.5-2.9-13.7-2.9-21.1c0-6.6,0.8-13.1,2.3-19c1.5-6,3.8-11.4,6.6-15.8l0,0l0-0.1l0,0l0,0l0,0l0,0
		l0,0c0.5-0.6,1.3-0.6,1.9-0.2c0.2,0.1,15.9,12.1,57.7,16.3h31.7h0c0.8,0,1.4,0.6,1.4,1.4v32.7v0c0,0.8-0.6,1.4-1.4,1.4h-35.4h0
		c-0.8,0-1.4-0.6-1.4-1.4v-4.4C223.7,377.4,202.2,400.1,200.9,401.5L200.9,401.5z"/>
	<path class="st4" d="M331,483.9c10.8-12.4,25.3-27.3,6.3-48.1c-19-20.8,1.4-34.2,1.4-34.2c0.9-19.2,8.7-23,11.1-23.6
		c2.4-0.6,3.5-3.3,4.8-6.1c1.3-2.7,4.4-2.6,4.4-2.6s3.1-0.2,4.4,2.6c1.3,2.7,2.4,5.5,4.8,6.1c2.4,0.6,10.2,4.3,11.1,23.6
		c0,0,14.9,5.9,9.8,18.3c-5.1,12.4-15.1,19-20.4,27.9c-5.3,8.8-16.7,31.4-16.7,31.4L331,483.9z"/>
	<path class="st3" d="M338.3,434.8c18.3,19.9,7.1,34.6-3.4,46.7L351,478c1.8-3.6,11.6-22.9,16.4-30.9c2.2-3.7,5.1-6.9,8.1-10.3
		c4.5-4.9,9.2-10.2,12.2-17.4c4.5-10.9-8.5-16.2-9-16.4l0,0l0,0c-0.5-0.2-0.8-0.7-0.9-1.2c-0.3-7.1-1.6-12-3.2-15.3
		c-2.5-5.2-5.5-6.6-6.8-6.9c-2.9-0.7-4.1-3.4-5.5-6.2l0,0l-0.3-0.6c-0.9-1.9-3.2-1.7-3.2-1.7c0,0-2.3-0.1-3.2,1.7l-0.3,0.5l0,0.1
		c-1.3,2.8-2.6,5.5-5.5,6.2c-1.3,0.3-4.4,1.7-6.8,6.9c-1.6,3.3-2.9,8.2-3.2,15.2c0,0.5-0.2,0.9-0.6,1.2
		C339.4,402.8,320.4,415.3,338.3,434.8 M330,482.9l1.2-1.3c10.2-11.7,22.6-25.7,5.1-44.9c-18.2-19.9-2.3-33.4,1-35.9
		c0.4-7.1,1.8-12.2,3.4-15.7c3-6.3,7-8,8.7-8.5c1.6-0.4,2.5-2.5,3.6-4.7l0-0.1l0.3-0.5c1.7-3.6,5.7-3.4,5.7-3.4c0,0,4-0.3,5.7,3.4
		l0.3,0.6l0,0l0,0c1,2.2,2,4.3,3.6,4.7c1.7,0.4,5.7,2.2,8.7,8.5c1.7,3.5,3,8.5,3.4,15.5c3.2,1.5,14.6,7.9,9.8,19.7
		c-3.2,7.7-8.1,13.1-12.7,18.2c-3,3.3-5.8,6.4-7.8,9.8c-5.3,8.8-16.6,31.3-16.6,31.3c-0.2,0.4-0.5,0.6-0.9,0.7v0l-21,4.7
		c-0.8,0.2-1.5-0.3-1.7-1.1C329.5,483.7,329.7,483.3,330,482.9z"/>
	<path class="st3" d="M378.6,401.1c0.4-0.7,1.3-0.8,1.9-0.4c0.7,0.4,0.8,1.3,0.4,1.9c-2.4,3.9-5.8,7.1-9.8,9.3
		c-3.9,2.2-8.3,3.4-12.9,3.4c-4.6,0-8.9-1.2-12.5-3.4c-3.7-2.2-6.8-5.5-8.7-9.3c-0.3-0.7-0.1-1.5,0.6-1.9c0.7-0.4,1.5-0.1,1.9,0.6
		c1.7,3.4,4.4,6.2,7.7,8.2c3.2,1.9,6.9,3,11,3c4.1,0,8.1-1.1,11.5-3C373.3,407.4,376.4,404.5,378.6,401.1"/>
	<path class="st3" d="M386.3,406.6c0.5-0.6,1.4-0.7,2-0.2c0.6,0.5,0.7,1.4,0.2,2c-3.5,4.4-8.2,7.9-13.5,10.4
		c-5.1,2.4-10.8,3.7-16.8,3.7c-5.6,0-10.9-1.2-15.5-3.4c-4.8-2.2-8.9-5.5-11.9-9.5c-0.5-0.6-0.4-1.5,0.3-2c0.6-0.5,1.5-0.4,2,0.3
		c2.8,3.6,6.5,6.6,10.9,8.7c4.2,2,9.1,3.1,14.3,3.1c5.6,0,10.9-1.3,15.6-3.5C378.7,414,383,410.7,386.3,406.6"/>
	<path class="st4" d="M157.2,483.9c-10.8-12.4-25.3-27.3-6.3-48.1s-1.4-34.2-1.4-34.2c-0.9-19.2-8.7-23-11.1-23.6
		c-2.4-0.6-3.5-3.3-4.8-6.1c-1.3-2.7-4.4-2.6-4.4-2.6s-3.1-0.2-4.4,2.6c-1.3,2.7-2.4,5.5-4.8,6.1c-2.4,0.6-10.2,4.3-11.1,23.6
		c0,0-14.9,5.9-9.8,18.3c5.1,12.4,15.1,19,20.4,27.9c5.3,8.8,16.7,31.4,16.7,31.4L157.2,483.9z"/>
	<path class="st3" d="M153.3,481.6c-10.6-12.2-21.7-26.8-3.4-46.7c17.9-19.6-1.1-32-1.1-32.1c-0.4-0.3-0.6-0.7-0.6-1.2
		c-0.3-7-1.6-11.9-3.2-15.2c-2.5-5.2-5.5-6.6-6.8-6.9c-2.9-0.7-4.1-3.4-5.5-6.2l0-0.1l-0.3-0.5c-0.9-1.9-3.2-1.7-3.2-1.7
		c0,0-2.3-0.1-3.2,1.7l-0.3,0.6l0,0c-1.3,2.8-2.6,5.5-5.5,6.2c-1.3,0.3-4.4,1.7-6.8,6.9c-1.6,3.4-2.9,8.3-3.2,15.3
		c0,0.6-0.4,1-0.9,1.2l0,0l0,0c-0.5,0.2-13.5,5.6-9,16.4c3,7.2,7.7,12.5,12.2,17.4c3,3.4,5.9,6.6,8.1,10.3
		c4.8,8.1,14.6,27.3,16.4,30.9L153.3,481.6z M157.1,481.6l1.2,1.3c0.3,0.3,0.5,0.8,0.3,1.3c-0.2,0.8-0.9,1.2-1.7,1.1l-21-4.7v0
		c-0.4-0.1-0.7-0.3-0.9-0.7c0-0.1-11.4-22.5-16.6-31.3c-2-3.4-4.9-6.5-7.8-9.8c-4.6-5.1-9.5-10.6-12.7-18.2
		c-4.9-11.8,6.5-18.2,9.8-19.7c0.4-7,1.8-12,3.4-15.5c3-6.3,7-8,8.7-8.5c1.6-0.4,2.5-2.5,3.6-4.7l0,0l0,0l0.3-0.6
		c1.7-3.6,5.7-3.4,5.7-3.4c0,0,4-0.3,5.7,3.4l0.3,0.5l0,0.1c1,2.2,2,4.3,3.6,4.7c1.7,0.4,5.7,2.2,8.7,8.5c1.7,3.5,3,8.6,3.4,15.7
		c3.3,2.5,19.2,16,1,35.9C134.5,455.8,146.8,469.9,157.1,481.6z"/>
	<path class="st3" d="M107.3,402.6c-0.4-0.7-0.2-1.5,0.4-1.9c0.7-0.4,1.5-0.2,1.9,0.4c2.2,3.5,5.2,6.3,8.8,8.3c3.5,1.9,7.4,3,11.5,3
		c4.1,0,7.9-1.1,11-3c3.3-2,5.9-4.8,7.7-8.2c0.4-0.7,1.2-1,1.9-0.6c0.7,0.3,1,1.2,0.6,1.9c-2,3.9-5,7.1-8.7,9.3
		c-3.6,2.2-7.9,3.4-12.5,3.4c-4.6,0-9-1.2-12.9-3.4C113.1,409.6,109.7,406.4,107.3,402.6"/>
	<path class="st3" d="M99.7,408.4c-0.5-0.6-0.4-1.5,0.2-2c0.6-0.5,1.5-0.4,2,0.2c3.3,4,7.6,7.4,12.5,9.7c4.7,2.2,10.1,3.5,15.6,3.5
		c5.2,0,10.1-1.1,14.3-3.1c4.4-2,8.1-5,10.9-8.7c0.5-0.6,1.3-0.7,2-0.3c0.6,0.5,0.7,1.3,0.3,2c-3,4-7.1,7.2-11.9,9.5
		c-4.6,2.2-9.9,3.4-15.5,3.4c-6,0-11.7-1.4-16.8-3.7C107.9,416.3,103.3,412.8,99.7,408.4"/>
	<path class="st2" d="M406.5,157.5c-8.1,5.9-20.5,11.9-35,16.3c-14.5,4.5-28.2,6.6-38.2,6.2c5.9,8.1,11.9,20.5,16.3,35
		c4.5,14.5,6.6,28.2,6.2,38.2c8.1-5.9,20.5-11.9,35-16.3c14.5-4.5,28.2-6.6,38.2-6.2c-5.9-8.1-11.9-20.5-16.3-35
		C408.2,181.2,406.2,167.5,406.5,157.5 M395.9,177.5c-4.7,3.4-12,6.9-20.4,9.5c-8.5,2.6-16.4,3.8-22.3,3.6c3.4,4.7,6.9,12,9.5,20.4
		c2.6,8.5,3.8,16.4,3.6,22.3c4.7-3.4,12-6.9,20.4-9.5c8.5-2.6,16.4-3.8,22.3-3.6c-3.4-4.7-6.9-12-9.5-20.4
		C397,191.3,395.7,183.3,395.9,177.5z"/>
	<path class="st3" d="M390.4,165.1c6-2.8,11.1-5.8,15.2-8.7c0.3-0.2,0.6-0.3,0.9-0.3c0.8,0,1.4,0.7,1.4,1.4
		c-0.2,5,0.3,10.9,1.4,17.5c1,6.3,2.6,13.2,4.8,20.2c2.2,7,4.7,13.6,7.4,19.4c2.8,6,5.8,11.1,8.7,15.2c0.2,0.2,0.3,0.6,0.3,0.9
		c0,0.8-0.7,1.4-1.4,1.4c-5-0.2-10.9,0.3-17.5,1.4c-6.3,1-13.2,2.6-20.2,4.8c-7,2.2-13.6,4.7-19.4,7.4c-6,2.8-11.2,5.8-15.2,8.7
		c-0.2,0.2-0.6,0.3-0.9,0.3c-0.8,0-1.4-0.7-1.4-1.4c0.2-5-0.3-10.9-1.4-17.5c-1-6.3-2.6-13.2-4.8-20.2c-2.2-7-4.7-13.6-7.4-19.4
		c-2.8-6-5.8-11.1-8.7-15.2c-0.2-0.2-0.3-0.6-0.3-0.9c0-0.8,0.7-1.4,1.4-1.4c5,0.2,10.9-0.3,17.5-1.4c6.3-1,13.2-2.6,20.2-4.8
		C378.1,170.3,384.6,167.8,390.4,165.1 M405.1,160.2c-3.8,2.5-8.3,5.1-13.4,7.4c-5.9,2.7-12.6,5.3-19.8,7.5
		c-7.2,2.2-14.2,3.9-20.6,4.9c-5.6,0.9-10.7,1.4-15.3,1.4c2.5,3.8,5.1,8.3,7.4,13.4c2.7,5.9,5.3,12.6,7.6,19.8
		c2.2,7.2,3.9,14.2,4.9,20.6c0.9,5.6,1.4,10.7,1.4,15.3c3.8-2.5,8.3-5.1,13.4-7.4c5.9-2.7,12.6-5.3,19.8-7.5
		c7.2-2.2,14.2-3.9,20.6-4.9c5.6-0.9,10.7-1.4,15.3-1.4c-2.5-3.8-5.1-8.3-7.4-13.4c-2.7-5.9-5.3-12.6-7.6-19.8
		c-2.2-7.2-3.9-14.2-4.9-20.6C405.6,169.9,405.1,164.8,405.1,160.2z M386.3,181.4c3.5-1.6,6.4-3.3,8.7-5c0.3-0.2,0.6-0.3,0.9-0.3
		c0.8,0,1.4,0.7,1.4,1.4c-0.1,2.9,0.2,6.3,0.8,10.1c0.6,3.7,1.5,7.6,2.8,11.7c1.3,4.1,2.7,7.9,4.3,11.3c1.6,3.5,3.3,6.4,5,8.7
		c0.2,0.3,0.3,0.6,0.3,0.9c0,0.8-0.7,1.4-1.4,1.4c-2.9-0.1-6.3,0.2-10.1,0.8c-3.7,0.6-7.6,1.5-11.7,2.8c-4.1,1.3-7.9,2.7-11.3,4.3
		c-3.5,1.6-6.4,3.3-8.7,5c-0.3,0.2-0.6,0.3-0.9,0.3c-0.8,0-1.4-0.7-1.4-1.4c0.1-2.9-0.2-6.3-0.8-10.1c-0.6-3.7-1.5-7.6-2.8-11.7
		c-1.3-4.1-2.7-7.9-4.3-11.3c-1.6-3.5-3.3-6.4-5-8.7c-0.2-0.3-0.3-0.6-0.3-0.9c0-0.8,0.7-1.4,1.4-1.4c2.9,0.1,6.3-0.2,10.1-0.8
		c3.7-0.6,7.6-1.5,11.7-2.8C379.2,184.4,383,182.9,386.3,181.4z M394.5,180.1c-2,1.3-4.4,2.6-7,3.8c-3.5,1.6-7.4,3.1-11.6,4.4
		c-4.2,1.3-8.3,2.3-12.1,2.9c-2.8,0.5-5.5,0.7-7.9,0.8c1.3,2,2.6,4.4,3.8,7c1.6,3.5,3.1,7.4,4.4,11.6c1.3,4.2,2.3,8.3,2.9,12.1
		c0.5,2.9,0.7,5.5,0.8,7.9c2.1-1.3,4.4-2.6,7-3.8c3.5-1.6,7.4-3.1,11.6-4.4c4.2-1.3,8.3-2.3,12.1-2.9c2.8-0.5,5.5-0.7,7.9-0.8
		c-1.3-2-2.6-4.4-3.8-7c-1.6-3.5-3.1-7.4-4.4-11.6c-1.3-4.2-2.3-8.3-2.9-12.1C394.9,185.2,394.6,182.5,394.5,180.1z"/>
	<polygon class="st2" points="52.8,110.2 72.7,72.5 91.3,82.4 95.8,73.9 77.2,64.1 80.2,58.3 110.3,74.2 114.9,76.6 145,92.5 
		141.9,98.3 123.4,88.5 118.9,96.9 137.5,106.8 117.6,144.4 92,130.9 99,117.6 111.9,124.4 119.2,110.7 106.3,103.9 110.3,96.3 
		105.8,93.9 101.2,91.5 96.7,89.1 92.6,96.7 79.7,89.9 72.5,103.6 85.4,110.4 78.4,123.7 	"/>
	<path class="st3" d="M73.3,74.4l-18.6,35.2l23.1,12.2l5.7-10.8l-11.7-6.2c-0.7-0.4-0.9-1.2-0.6-1.9l7.2-13.7
		c0.4-0.7,1.2-0.9,1.9-0.6l11.7,6.2l3.4-6.4c0.4-0.7,1.2-0.9,1.9-0.6l4.5,2.4l4.5,2.4L111,95c0.7,0.4,0.9,1.2,0.6,1.9l-3.4,6.4
		l11.7,6.2c0.7,0.4,0.9,1.2,0.6,1.9l-7.2,13.7c-0.4,0.7-1.2,0.9-1.9,0.6l-11.7-6.2l-5.7,10.8l23.1,12.2l18.6-35.2l-17.3-9.2
		c-0.7-0.4-0.9-1.2-0.6-1.9l4.5-8.4c0.4-0.7,1.2-0.9,1.9-0.6l17.3,9.2l1.8-3.3l-28.9-15.3l-4.5-2.4L80.8,60.2l-1.8,3.3l17.3,9.2
		c0.7,0.4,0.9,1.2,0.6,1.9L92.5,83c-0.4,0.7-1.2,0.9-1.9,0.6L73.3,74.4z M51.6,109.6l19.9-37.7c0.4-0.7,1.2-0.9,1.9-0.6l17.3,9.2
		l3.1-6l-17.3-9.2c-0.7-0.4-0.9-1.2-0.6-1.9l3.1-5.8c0.4-0.7,1.2-0.9,1.9-0.6L111,73l4.5,2.4l30.1,15.9c0.7,0.4,0.9,1.2,0.6,1.9
		l-3.1,5.8c-0.4,0.7-1.2,0.9-1.9,0.6l-17.3-9.2l-3.1,6l17.3,9.2c0.7,0.4,0.9,1.2,0.6,1.9l-19.9,37.7c-0.4,0.7-1.2,0.9-1.9,0.6
		l-25.6-13.5c-0.7-0.4-0.9-1.2-0.6-1.9l7-13.3c0.4-0.7,1.2-0.9,1.9-0.6l11.7,6.2l5.9-11.2l-11.7-6.2c-0.7-0.4-0.9-1.2-0.6-1.9
		l3.4-6.4l-3.3-1.7l-4.5-2.4L97.3,91l-3.4,6.4C93.5,98,92.7,98.3,92,98l-11.7-6.2L74.4,103l11.7,6.2c0.7,0.4,0.9,1.2,0.6,1.9
		l-7,13.3c-0.4,0.7-1.2,0.9-1.9,0.6l-25.6-13.5C51.5,111.1,51.2,110.2,51.6,109.6z"/>
	<path class="st2" d="M401.7,152.9c7.5,0,13.7,6.1,13.7,13.7c0,7.5-6.1,13.7-13.7,13.7c-7.5,0-13.7-6.1-13.7-13.7
		C388,159,394.1,152.9,401.7,152.9"/>
	<path class="st3" d="M410.4,157.9c-2.2-2.2-5.3-3.6-8.7-3.6c-3.4,0-6.5,1.4-8.7,3.6c-2.2,2.2-3.6,5.3-3.6,8.7
		c0,3.4,1.4,6.5,3.6,8.7l0,0c2.2,2.2,5.3,3.6,8.7,3.6c3.4,0,6.5-1.4,8.7-3.6c2.2-2.2,3.6-5.3,3.6-8.7
		C413.9,163.2,412.6,160.1,410.4,157.9L410.4,157.9z M401.7,151.5c4.2,0,7.9,1.7,10.6,4.4l0,0l0,0l0,0c2.7,2.7,4.4,6.5,4.4,10.6
		c0,4.2-1.7,7.9-4.4,10.6l0,0l0,0c-2.7,2.7-6.5,4.4-10.6,4.4c-4.2,0-7.9-1.7-10.6-4.4l0,0l0,0l0,0c-2.7-2.7-4.4-6.5-4.4-10.6
		c0-4.2,1.7-7.9,4.4-10.6l0,0l0,0C393.8,153.2,397.5,151.5,401.7,151.5z"/>
	<path class="st2" d="M420,212.3c7.5,0,13.7,6.1,13.7,13.7c0,7.5-6.1,13.7-13.7,13.7c-7.5,0-13.7-6.1-13.7-13.7
		C406.3,218.4,412.5,212.3,420,212.3"/>
	<path class="st3" d="M428.7,217.3c-2.2-2.2-5.3-3.6-8.7-3.6c-3.4,0-6.5,1.4-8.7,3.6l0,0c-2.2,2.2-3.6,5.3-3.6,8.7
		c0,3.4,1.4,6.5,3.6,8.7c2.2,2.2,5.3,3.6,8.7,3.6c3.4,0,6.5-1.4,8.7-3.6l0,0c2.2-2.2,3.6-5.3,3.6-8.7
		C432.3,222.5,430.9,219.5,428.7,217.3 M420,210.9c4.2,0,7.9,1.7,10.7,4.4c2.7,2.7,4.4,6.5,4.4,10.7c0,4.2-1.7,7.9-4.4,10.6l0,0l0,0
		l0,0c-2.7,2.7-6.5,4.4-10.6,4.4c-4.2,0-7.9-1.7-10.7-4.4c-2.7-2.7-4.4-6.5-4.4-10.7c0-4.2,1.7-7.9,4.4-10.6l0,0l0,0l0,0
		C412.1,212.6,415.8,210.9,420,210.9z"/>
	<path class="st2" d="M360.6,230.6c7.5,0,13.7,6.1,13.7,13.7c0,7.5-6.1,13.7-13.7,13.7c-7.5,0-13.7-6.1-13.7-13.7
		C347,236.7,353.1,230.6,360.6,230.6"/>
	<path class="st3" d="M369.3,235.6c-2.2-2.2-5.3-3.6-8.7-3.6c-3.4,0-6.5,1.4-8.7,3.6l0,0c-2.2,2.2-3.6,5.3-3.6,8.7
		c0,3.4,1.4,6.5,3.6,8.7c2.2,2.2,5.3,3.6,8.7,3.6c3.4,0,6.5-1.4,8.7-3.6l0,0c2.2-2.2,3.6-5.3,3.6-8.7
		C372.9,240.9,371.5,237.8,369.3,235.6 M360.6,229.2c4.2,0,7.9,1.7,10.7,4.4c2.7,2.7,4.4,6.5,4.4,10.7c0,4.2-1.7,7.9-4.4,10.6l0,0
		l0,0l0,0c-2.7,2.7-6.5,4.4-10.6,4.4c-4.2,0-7.9-1.7-10.7-4.4c-2.7-2.7-4.4-6.5-4.4-10.7c0-4.2,1.7-7.9,4.4-10.6l0,0l0,0l0,0
		C352.7,230.9,356.5,229.2,360.6,229.2z"/>
	<path class="st2" d="M341.5,195.3l8.9-16.9c2.4-4.5,0.6-10.2-3.9-12.5l0,0c-4.5-2.4-10.2-0.6-12.5,3.9l-8.9,16.9
		c-2.4,4.5-0.6,10.2,3.9,12.5l0,0C333.5,201.5,339.1,199.8,341.5,195.3"/>
	<path class="st3" d="M351.7,179l-8.9,16.9c-1.4,2.6-3.7,4.4-6.3,5.2c-2.6,0.8-5.5,0.6-8.1-0.7l0,0c-2.6-1.4-4.4-3.7-5.2-6.3
		c-0.8-2.6-0.6-5.5,0.7-8.1l0,0l8.9-16.9c1.4-2.6,3.7-4.4,6.3-5.2c2.6-0.8,5.5-0.6,8.1,0.8c2.6,1.4,4.4,3.7,5.2,6.3
		C353.2,173.5,353.1,176.4,351.7,179 M340.3,194.6l8.9-16.9c1-1.9,1.1-4.1,0.6-6c-0.6-1.9-1.9-3.6-3.8-4.6c-1.9-1-4.1-1.1-6-0.6
		c-1.9,0.6-3.6,1.9-4.6,3.8l-8.9,16.8c0,0.1-0.1,0.1-0.1,0.2c-1,1.9-1.1,4-0.5,5.9c0.6,1.9,1.9,3.6,3.8,4.6c0.1,0,0.1,0.1,0.2,0.1
		c1.9,1,4,1.1,5.9,0.5C337.6,197.9,339.3,196.5,340.3,194.6z"/>
	<path class="st3" d="M426.6,522.5C381.3,567.8,318.8,596,250,596c-68.8,0-131.3-28.1-176.6-73.4C28.1,477.2,0,414.7,0,346V4.6
		C0,2.1,2.1,0,4.6,0h490.8c2.5,0,4.6,2.1,4.6,4.6V346C500,414.7,471.9,477.2,426.6,522.5 M250,586.8c66.2,0,126.4-27.1,170.1-70.7
		c43.6-43.6,70.7-103.9,70.7-170.1V9.2H9.2V346c0,66.2,27.1,126.4,70.7,170.1C123.6,559.7,183.8,586.8,250,586.8z"/>
</g>
</svg>
